<?xml version="1.0" encoding="UTF-8"?><svg id="Layer_1" xmlns="http://www.w3.org/2000/svg" viewBox="0 0 1920 500"><defs><style>.cls-1{fill:#fff;}.cls-2{fill:#36396e;}.cls-3{fill:#a8ae9d;}.cls-4{fill:#398db0;}.cls-5{fill:#6b86a7;}.cls-6{fill:#e3e4e9;}.cls-7{fill:#8bd981;}.cls-8{fill:#7fc5d0;}.cls-9{fill:#090c43;}.cls-10{fill:#707070;}.cls-11{fill:#df7e37;}.cls-12{fill:#373433;}.cls-13{fill:#e7e7e7;}.cls-14{fill:#d4625d;}.cls-15{fill:#8d7799;}.cls-16{fill:#804f30;}.cls-17{fill:#4b7448;}.cls-18{fill:#54533f;}.cls-19{fill:#b0edf6;}.cls-20{fill:#f9e7d9;}.cls-21{fill:#8c5341;}.cls-22{fill:#899375;}.cls-23{fill:#a4a2bc;}.cls-24{fill:#dad8fe;}.cls-25{fill:#cccccd;}.cls-26{fill:#ff8f3f;}.cls-27{fill:#e06960;}.cls-28{fill:#6fad69;}.cls-29{fill:#e3be94;}.cls-30{fill:#f2f2f2;}</style></defs><path class="cls-8" d="m1118.69,375.86c2.54,1.94,5.72,2.48,8.24,1.16,2.92-1.54,5.75-.78,8.59-1.15.89-.85,1.98-1.1,3.17-1.11,1.66-.06,3.26-.53,4.9-.83,28.92-.7,57.83-.21,86.73-.28,1.54,0,3.06.27,4.5.81,4.17,2,4.09,5.5,2.97,9.13-5.4,17.53-6.44,35.02,0,52.56.86,2.33,1.49,5-1,7.05-11.54,2.62-23.26.46-34.87,1.4-12.25.17-24.51.12-36.76.05-10.04-.49-20.09-.12-30.14-.18-2.79.2-5.57.05-8.36-.09-1.37-.13-2.72-.36-3.98-.92-6.85-6.81-7.92-15.51-7.83-24.53.08-8.72,1.97-17.11,5.19-25.19.81-1.22,2.04-1.9,3.35-2.39.63-.36,1.31-.71,1.04-1.66-3.34-2.3-7.9.15-10.98-2.95-.7-4.8,1.13-8.38,5.22-10.87Z"/><path class="cls-7" d="m868.52,218.38c3.83,2.73,8.2,1.23,12.33,1.57,2.75-2.45,6.12-2.26,9.45-2.26,28.4.02,56.8-.07,85.2.03,5.09.39,10.31-.83,15.3,1.06,3.13,2.12,1.26,4.7.26,6.79-5.93,12.41-6.22,24.69.18,37.03.92,1.78,1.87,3.76.25,5.75-3.26,2.19-6.97,1.37-10.53,1.65-.94.03-1.88.03-2.82.03-29-.03-57.99.04-86.99-.05-4.38-.01-8.68.54-13,1.01-7.54-2.34-15.25-.14-22.89-.74-8.08-.63-14.3-3.52-18.27-10.72-.61-1.1-.99-2.29-1.23-3.51-.86-5.05-2.08-10.06-2.12-15.24.14-1.6.69-3.09,1.18-4.59.94-2.89,1.44-5.91,2.49-8.75.84-2.29,1.46-5.09,5.02-4.38,1.45-1.04,2.91-2.07,4.36-3.11,7.05-3.79,14.47-2.27,21.84-1.56Z"/><path class="cls-6" d="m1140.11,370.81c.32-1.96.12-4.2,1.03-5.83,5.43-9.66,5.65-20.17,5.06-30.71-.21-3.84-1.46-7.84-3.17-11.3-1.24-2.5-1.21-4.82-1.31-7.31,2.2-2.28,5.11-2.22,7.9-2.21,8.96.03,17.92-.14,26.84-.91,6.14,5.46,12.83,2.68,19.44,1.24,1.54-.1,3.08-.09,4.62-.01,5.79,2.31,11.54,1.59,17.3-.23,10.02-.35,20.03-.22,30.03-.22,15.18,0,23.13,6.69,25.38,21.9,1.59,10.75-.63,20.93-6.14,30.35-3.1,5.31-7.56,8-13.88,7.99-34.9-.04-69.81,0-104.71-.06-3.02,0-6.27.3-8.39-2.7Z"/><path class="cls-25" d="m1164.87,442.31c12.35,0,24.69,0,37.04,0,12.18,1.36,24.37,1.04,36.55.15,5.35-1.64,10.83-.74,16.26-.84,4.88.05,9.79-.04,14.39,2.02,4.12,1.84,8.09-.22,12.12-.46,3.32,2,6.67,3.98,7.14,8.41-3.82,2.96-8,1.42-12.06.88-5.68-.75-11.35-2.34-17.02-2.37-37.27-.21-74.54-.09-111.81-.13-2.87,0-5.73-.37-9.35-.62,1.81,3,3.43,5.68,5.27,8.73-1.81,1.9-3.71,3.9-4.96,5.21-18.11,3.58-35.5,1.63-52.82,2.14-7.91,3.33-16.68-.31-24.59,3.04-.22.09-.51,0-.77.02-9.1.52-18.3.43-27.29,1.75-8.36,1.23-16.84.25-24.98,1.63-10.2,1.73-20.4.13-30.44,1.43-21.7,2.81-43.43.7-65.14,1.29-4.72.13-9.47-.92-14.2-1.46-4.73-.54-9.71,1.38-14.23-1.47-.55-.35-1.51-.07-2.28-.06-9.35.15-18.49-1.38-27.67-2.96-6.69-1.15-13.58-1.08-20.36-1.73-5.73-.55-11.44-1.36-17.26-2.07-.15-.65-.32-1.38-.49-2.11,2.3-4.07,8.13-.56,10.33-4.83,1.87-2.8,3.41-6.07,7.64-5.65,2.56,1.18,4.53,3.37,7.23,4.32,3.57,2.34,7.32,1.1,11.03.53,7.38.05,14.62-.59,21.63,3.57,6.15,3.64,11.71-1.52,17.34-3.66,6.01.46,11.71-.63,17.08-3.39,1.4-.5,2.86-.71,4.33-.81,1.07-.11,2.15-.2,3.22-.38,1.07-.26,2.13-.54,3.21-.78,2.66-.55,5.31-.46,7.97.05,2.41.75,4.72,0,7.06-.47,14.87-.8,29.73-.75,44.57-.09,3.33.69,6.59,2.04,10.11,1.18.7-.22,1.42-.37,2.14-.5,1.47-.25,2.94-.14,4.41.05,1.59.09,3.09-.4,4.63-.69,16.71-.77,33.42-.36,50.12-.27,4.7-.59,7.91,6.12,13.21,2.7,3.95-1.45,7.88-.88,11.8.06.61.13,1.24.23,1.86.25,1.26-.07,2.17-.93,3.21-1.51.9-.35,1.8-.37,2.71-.03.74,1.16,1.46.99,2.17-.05.97-.37,1.97-.39,2.99-.32,1.48.03,2.87-.45,4.3-.73,10.83-.69,21.65-.71,32.43-.05.59.1,1.2.29,1.94.35.46-.84-.44-.74-.79-1-1.87-.51-3.9-.39-5.52-1.63-1.37-2.63.87-3.73,2.2-5.21,1.13-.86,2.78-.34,3.82-1.43,2.57,0,5.14,0,7.71,0,10.29,1.22,20.59,1.22,30.88,0Z"/><path class="cls-18" d="m837.59,255.5c-.02,1.02-.03,2.04-.05,3.06-3.45,5.36-9.37,5.27-14.63,6.64-4.02.43-8.06.06-12.1.33-23.91-.25-47.82-.14-71.73-.13-7-.5-14.12,1.01-21.04-1.09-2.51-1.67-1.78-3.99-1.03-6.15,3.94-11.33,5.87-22.67.91-34.25-.82-1.91-.76-4,.57-5.84,2.35-1.75,5-1.58,7.68-1.21,5.85,1.38,11.81.91,17.73.91,1.69.08,3.26-.5,4.87-.86,6.1-.86,12.21-.83,18.32-.18,1.4.26,2.75.86,4.23.61.68-.15,1.38-.23,2.07-.27,1.06-.03,2.1.12,3.13.37,3.43.18,6.6,2.24,10.17,1.33,5.65-.1,11.3-.21,16.95-.31,2.95,14,12.81,17.25,25.4,16.49,2.48-.15,5.12-.09,7.05,2.03-.51,1.05-1.01,2.11-1.52,3.16-2.23,3.07-5.75,2.95-8.96,3.68-3.36.77-7.01,1.95-6.17,6.28.75,3.9,4.31,4.67,7.88,4.52,3.46-.14,7.07-2.07,10.26.89Z"/><path class="cls-28" d="m1303.82,307.8c1.43.25,3,.2,4.27.79,3.88,1.8,7.52,1.36,11.14-.58,1.36-.18,2.28.61,3.2,1.42,5.42.88,8.87,4.19,11.21,8.96.62,1.27,1.56,2.38,2.35,3.57,2.83,4.28,3.7,9.26,5.06,14.07.5,4.23.52,8.47.06,12.71-.31,2.02-.93,3.99-1.24,6.01-1.1,5.05-2.92,9.88-4.35,14.84-2.11,2.45-3.63,5.35-5.76,7.8-8.92,3.73-17.87,3.08-26.83.18-7.73-3.39-15.5-2.59-23.29-.18-4.66.6-9.43,1.95-13.4-2.01-1.02-3.01.49-5.55,1.69-8.06,8.86-18.6,8.27-36.72-2.53-54.39-.82-1.34-1.32-2.79-.84-4.39,3.3-3.25,7.03-1.5,10.52-.66,3.75.91,7.32,1.64,10.84-.58,6.03-1.82,12.03-2.76,17.91.5Z"/><path class="cls-19" d="m903.98,167.63c-6.47-11.42-6.78-23.93-6.04-36.5.23-3.83,1.52-7.75,3.05-11.31,1.05-2.43,3.37-4.31,5.06-6.36h22.58c3,6.55-.52,12.69-1.19,19-2.86,6.21-3.37,13.4-8.48,19.48,10.05-2.54,8.28-11.09,10.52-17.3,1.36-2.9,2.77-5.72,6.82-4.77,1.35.85,2.11,2.17,2.77,3.56,2.03,5.71,4.34,11.37,3.67,17.89,6.44-7.21.11-13.91-.26-20.74-.1-5.38-2.13-10.77.11-16.14,1.49-1.09,3.26-1.69,4.98-1.45,9.73,1.38,19.5.84,29.25.69.79.3,1.46.79,1.99,1.44,1.48,2.37,1.59,5.22,2.67,7.95,2.23-.23,4.83-2.96,6.73.59-.17,7.95-.27,15.89-.38,23.83-.1,7.13,1.86,13.65,4.67,20.05.04,1-.34,1.77-1.16,2.35-4.05,2.03-8.39,1.26-12.65,1.38-21.92-.13-43.84.06-65.76-.16-3.2-.03-7.45,1.43-8.95-3.48Z"/><path class="cls-30" d="m649.26,307.31c1.87-4.62,1.08-9.73,2.92-14.46,1.03-2.66,1.04-6.38.02-9.04-2.2-5.73-.89-11.5-1.39-17.21,2.75-3.28,6.59-2.39,10.07-2.42,24.91-.2,49.81-.07,74.71.67,2.41.2,4.69.86,6.89,1.85,3.11,2.08,3.89,5.47,4.17,8.75.83,9.73,1.57,19.5-1.31,29.08-.43,1.21-1.05,2.32-1.94,3.25-.58.57-1.26,1-2.02,1.3-.73.26-1.5.4-2.27.44-1.12.04-2.24-.09-3.34-.27-1.84-.3-3.63.12-5.43.48-6.77.4-13.54.8-20.27-.2-1.21-.61-2.42-1.37-3.84-.47-2.93,1.49-6.3-.52-9.16,1.21.21.58.39,1.13.61,1.68,1.33,3.18,3.76,6.47-.9,9.03-5.32-1.12-10.26,2.2-15.56,1.33-3.69-3.25-3.16-7.07-1.48-11.03.51-.86,1.13-1.64,1.95-2.13.65-.71.91.73.53-.2-.47-1.15-.9.45-1.46.19-1.39.37-2.76.28-4.12,0-3.17-1.13-6.18-.08-9.23.65-6.1-.43-12.7,2.74-18.14-2.48Z"/><path class="cls-25" d="m792.81,454.59c.11-3.62,3.12-5.34,5-7.82.75-.99.88-2.45,1.55-4.49-5.27.41-9.71-1.04-14.12,1.41-1.38.77-3.55.29-5.33.1-9.21-.95-17.89,2.12-26.72,3.72-9.46,1.72-18.66,4.84-28.06,6.98-3.62.82-7.41-.07-11.19,1.47-3.36,1.37-7.33,1.5-11.05,1.68-5.39.26-10.9.73-16.18-.08-8.76-1.35-17.6-2.02-25.76-6.9-5.3-3.17-12.17-4.59-18.47-5.06-10.3-.77-20.09-3.66-30.11-5.56-1.94-.37-3.92-.69-5.79-1.32-2.95-.99-5.97-1.98-8.01-4.85v-6.17c1.9-3.36,5.02-4.54,8.92-4.05,4.11,5.69,10.02,5.58,16.25,5.63,18.75.16,37.51-.98,56.24.59,2.89,1.03,4.67,3.4,6.68,5.51,2.34,2.71.48,7.1,4.07,9.86,3.15-3.56,1.38-7.75,1.86-11.5.23-1.21.73-2.27,1.71-3.06,3.91-1.93,8.05-1.29,12.14-1.09,2.58.55,5.26.63,7.78,1.51,1.7,1.85,2.22,4.39,3.73,6.37,1.27,1.98.19,4.45,1.49,6.81,3.45-.88,4.24-2.76,2.5-5.85-.64-2.85-4.54-5.84.32-8.48,3.77-1.18,7.65-.86,11.49-.86,29.82-.02,59.65-.05,89.47.02,2.58,0,5.15.16,7.6-.8,1.8-.73,3.43-.66,4.69,1.05.48.67.87,1.4,1.2,2.16.34.72.59,1.49.8,2.26.57,3.07,1.73,6.04,1.63,9.24-.83,3.61-1.56,7.28-5.31,9.21-4.87,1.11-9.74,2.2-14.74.85-2.96-.77-4.54-3.83-7.53-4.55-5.03-.92-8.11,3.14-12.13,4.76-2.14.86-3.87,3.52-6.61,1.31Z"/><path class="cls-25" d="m885.37,215.1c.04-1.28-.31-2.73.17-3.82,3.7-8.41,3.14-17.3,2.93-26.1-.11-4.23-1.02-8.43-1.57-12.65.58-1.17,1.62-1.35,2.77-1.3,1.51.6,2.85-.02,4.21-.64,4.32-.99,8.59-.59,12.84.42,18.5,1.12,37,.17,55.5.52,3.82.07,7.75-.58,11.35,1.38,7.54,9.47,8.96,29.19,2.98,39.4-2.2,3.76-5.46,5.25-9.58,5.27-24.87.13-49.75.09-74.62.01-2.57,0-5.17-.19-6.97-2.49Z"/><path class="cls-30" d="m613.74,259.31c.53-4.42.34-9.09,1.76-13.19,2.54-7.35,1.68-14.05-1.56-20.79-.3-.63-.12-1.5-.16-2.26,2.18-2.3,5.05-2.25,7.87-2.27,22.29-.18,44.58-.16,66.88.06,1.99.03,3.98.03,5.98.03,3.34,0,6.68-.03,10.02.05,8.27.2,11.68,2.68,13.86,10.52,1.76,6.29,1.84,12.75.2,19.06-2.13,8.16-6.5,11.55-14.91,11.7-28,.51-55.99-.44-83.99-.62-2.18-.01-4.79.61-5.94-2.3Z"/><path class="cls-30" d="m610.74,402.24c-.03-.58-.05-1.17-.08-1.75-2.54-1.4-3.1-3.61-1.25-5.62,4.28-4.66,5.51-9.94,4.56-16.05-.28-1.79.74-3.42,2.58-4.25,15.59-2.1,31.25-.38,46.87-.99,4.83-.19,9.77.94,14.46-1.1,2.17-.53,3.61.42,4.62,2.25.3,15.25-1.07,30.57,1.64,45.75.2,1.38.33,2.77.25,4.17-.18,1.51-.76,2.76-2.22,3.44-6.28,1.97-12.75,1-19.12.96-15.65-.09-31.31.71-46.91-.44-.78-.2-1.52-.55-2.19-.99-1.88-2.11-1.24-6-4.8-7,.6-4.31,4.85-5.37,7.71-8.66v-5.27c-1.82-1.78-4.65-2.17-6.11-4.44Z"/><path class="cls-27" d="m681.68,311.05c-2.25,3.6-2.2,7.18.11,10.74,2.7,4.42,9.11,7.51,5.13,14.33-1.94,1.78-3.97,3.41-6.78,3.54-4.08-1.52-4.69-5.76-6.72-8.83-2.72-4.11-5.85-6.18-11.02-3.88-1.05,6.11,4.98,9.93,4.99,15.57-1.01,8.78,1.78,15.95,9.12,21.05,4.75,3.3,5.9,6.32-.18,9.34-16.41,1.37-32.83.41-49.24.53-2.07.02-4.08-.52-5.55-2.21-.38-1.13-.5-2.44-1.18-3.35-4.02-5.44-6.37-11.46-6.79-18.23-3.11-6.19-3.23-12.36.09-18.52,1.04-4.1,2.09-8.21,3.13-12.31.19-3.44,2.03-5.87,4.73-7.79,8.21,0,16.41-.02,24.62-.03,11.85-1.76,23.7-3.48,35.55.04Z"/><path class="cls-30" d="m1070.63,117.96c-4.7,3.45-6.4,8.21-6.12,13.88.1,2.03.06,4.07,0,6.1-.19,7.25.23,14.37,2.86,21.3.76,2,.18,4.52.21,6.79-1.17,1.24-2.69,1.48-4.28,1.53-4.81-.74-5.4,2.83-5.65,6.05-.44,5.73-1.01,11.45-1.66,17.16.57,4.75,2.75,9.31,1.67,14.25-4.85,4.11-8.68,1.68-12.34-1.91-1.12-4.99.59-9.96.1-14.94.15-7.37-3.64-13.9-4.54-21.03-.62-2.75-2.57-1.96-4.35-1.59-1.3.29-2.6.31-3.9.09-1.67-.37-3.32-.15-4.96.25-2.9.44-5.78.69-8.61-.38-1.05-1.37-2.11-1.02-3.19,0-2,.62-3.91.53-5.68-.7-.83-.95-1.27-2.07-1.55-3.28-.52-4.06-2.81-7.66-3.17-11.78.63-9.1,1.73-18.14,2.97-27.17.31-2.26.73-4.56,3.11-5.76,15.46-2.23,31-.51,46.5-.99,4.28-.13,8.72-.63,12.56,2.12Z"/><path class="cls-15" d="m1047.38,187.64c.32,5.2.4,10.37-1.44,15.37.34,2.19.39,4.35-.69,6.38-.71,1.5-2.63,2.23-2.65,4.34,2.29,2.28,5.59.89,8.21,2.02,10.62,3.25,15.09-.33,14.25-11.53-2.79-2.04-5.39,3.17-8.21.33-1.01-4.61-2.02-9.23-3.03-13.84,3.72-5.91,5.72-12.45,6.85-19.26.35-2.08.52-4.04,2.37-5.38,1.52-.01,3.04-.02,4.56-.03,1.06.99,2.12,1.97,3.18,2.96,2.94,11.91,6.59,23.76,2.1,36.12-.8,2.21.45,3.92,1.9,5.48,2.06,2.2,2.54,4.94,2.61,7.82.04,1.65.04,3.3.05,4.96-1.73,13.18-2.95,26.53-11.41,37.68-2.19.93-4.35.89-6.46-.23-4.53-4.03-3.46-9.3-2.92-14.31.49-4.57,1.13-9.11,1-13.73-.12-4.14-2.07-6.01-6.23-5.84-4.08.17-6.23,2.13-5.97,6.22.4,6.1,1.61,12.15,1.24,18.31-.18,3.04.13,6.17-1.78,8.86-2.37,1.84-4.94,1.84-7.61.82-3.75-2.54-4.48-6.77-5.61-10.63-2.51-8.61-5.03-17.24-6.25-26.17-.03-1.58-.33-3.16-.34-4.75.09-2.69,2.16-4.6,3.04-7.61-10.95-13.06-2.72-27.01-1.07-40.84.23-.7.54-1.36.9-2,.58-.93,1.33-1.68,2.27-2.24.97-.44,1.97-.52,3-.29,1.06.8,2.29.57,3.5.52.56.42.96.96,1.24,1.59,1.18,7.28,4.97,13.25,9.4,18.91Z"/><path class="cls-30" d="m1065.93,260.22c4.67-11.89,8.6-23.97,9.56-36.83,1.07-1.18,2.39-2.18,3.98-2.09,12.79.74,25.58-.74,38.37-.02,1.56.09,2.97.78,3.84,2.24-.3,1.44-.42,2.93-.92,4.3-3.17,8.69-3.25,17.34.03,25.97.95.07,1.71.13,2.46.19,1.06,2.25.39,4.79,1.19,7.09.16,1.55-.03,3.01-1.14,4.21-1.78,1.19-3.68,1.2-5.65.64-1.34-1-2.62-.78-3.86.24-6.44,1.32-12.9.73-19.35.34-2.07-.33-4.07-1.32-6.26-.74-1,.16-1.98.14-2.95-.16-.69-.91-1.42-1.41-2.29-.17-.91.37-1.83.4-2.77.17-1.19-.76-2.23-.31-3.26.4-2.09.61-4.15.43-6.21-.11-1.79-.57-3.61-1.08-5-2.46-.57-1.11-.56-2.19.22-3.21Z"/><path class="cls-30" d="m1351.64,419.09c.17,4.81-1.07,9.85,2.99,13.97.75.76.13,2.89.14,4.38-6.97,3.3-10.87,2.69-15.19-3.06-3.07-4.09-6.12-8.16-9.88-11.65-1.13-6.7,2.38-11.88,5.64-17.13,2.08-3.16-.32-6.31-.35-9.49-.08,3.28,2.69,6.78-.42,9.84-.66.41-1.39.93-2.1.84-8.98-1.16-12.77,4.3-15.1,11.71-.48.72-1.09,1.28-1.85,1.69-6.03,1.13-12.18,2.91-17.05-2.87-1.84-3.34-3.73-6.67-3.99-10.61.47-4.03.95-8.06,2.03-12,3.06-3.71,5.54-7.73,6.6-12.52.58-.72,1.29-1.23,2.14-1.58,13.12-1.01,26.24-1.98,39.32.34,3.35,2.68.76,4.05-1.31,5.56,8.27-2.36,9.66-1.38,9.22,6.6-.15,2.77-.26,5.54-.38,8.31-1.1,5.86-2.2,11.72-.45,17.66Z"/><path class="cls-26" d="m1118.69,375.86c-1.61,3.58-3.22,7.15-4.83,10.73-6.13,4.99-16.71,5.48-24.81,1.15-3.24-6.72-1.61-14.43-4.32-21.26-.2-.81-.29-1.63-.32-2.46-.03-1.61.21-3.16,1.15-4.53,4.89-2.6,4.73,4.21,8.52,4.41,1.65-3.37-.96-6.09-1.63-9.07-.75-3.52-.58-6.92,1.29-10.09.91-1.87,3.32-2.37,4.09-4.39-7.34-4.58-10.39-11.41-8.33-18.64,5.39.04,10.79.27,16.17.08,5.5-.19,9.01,2.14,11.25,7.11,2.69,5.96,3.73,12.31,4.69,18.64,1.31,8.63-1.47,17.09-1.62,25.69-.02.88-.83,1.75-1.27,2.62Z"/><path class="cls-22" d="m615.06,375.9c.67,4.14,1.35,8.27,2.04,12.52-2.63,2.99-5.19,5.91-7.87,8.95.43.94.93,2.03,1.43,3.12-1.31-.56-2.72-.98-3.92-1.73-1.62-1-3.08-2.25-5-3.69-3.68,6.45-9.49,8.33-15.66,10.53-1.64-1.47-3.28-2.94-5-4.47.68-2.36,1.3-4.47,1.91-6.58,2.07-3.53,6.04-3.36,7.51-4.21-2.67,1.82-7.84.53-12.3,2.49h-6.19c-5.88-5.11-6-5.36-5.94-13.17,3.61-3.4,7.43-4.95,12.8-2.82,3.82,1.52,8.23,1.55,12.71,1.47-5.13-3.45-10.34-6.81-15.37-10.39-4.78-3.41-8.17-7.66-6.96-14.34,3.09-3.93,7.46-4.46,12.95-3.56,2.09,3.23,4.01,7.46,7.08,10.55,3.02,3.04.87,8.3,5.55,10.44.35-2.47.27-5.02,1.14-7.18.92-2.27,2.75-4.17,4.32-6.44,1.88,0,3.82-.45,5.35.13,1.41.53,2.89,1.99,3.44,3.4.88,2.26,1.02,4.81,1.47,7.23-2.21,4.75,2.78,5.31,4.52,7.75Z"/><path class="cls-22" d="m1123.15,260.18c-3.55-2.13-.51-4.15.1-6.21,2.57-2.71,5.14-5.42,7.72-8.13,5.05-5.29,9.74-10.96,15.93-15.59.5,1.19,1.17,1.99.99,2.49-1.57,4.4-3.26,8.75-4.97,13.09-.27.68-.99,1.24-1.12,1.92-1.83,9.65-7.64,17.4-12.45,25.54-5.06,8.55-10.08,17.23-17.74,23.94-5.54,4.85-11.1,9.74-16.08,15.14-1.94,2.11-4.71,1.39-6.33,3.33-5.82-1.11-8.21-7.57-13.89-8.9.03-6.84,5.87-9.86,9.79-13.74,7.3-7.23,13.65-15.24,20.49-22.84,3.63-3.13,8.08-3.54,12.59-3.96,2-.19,4.63,1.29,5.86-1.69-.24-1.47.49-3.14-.88-4.39Z"/><path class="cls-22" d="m836.1,236.96c-4.34,0-8.72.29-13.03-.09-3.91-.34-7.88-1.01-11.59-2.26-4.93-1.66-7.65-5.44-7.82-10.8-.05-1.79-.01-3.58-.02-5.37-.09-3.78,2.35-5.78,5.54-6.03,4.16-.33,8.25-.79,12.28,2.4,3.27,2.59,7.62,5.13,12.55,3.24-3.35-5.18-6.52-10.48-10.09-15.5-3.65-5.13-5.92-10.49-4.56-17.25,2.53-3.77,6.29-5.67,11.3-5.51,3.9.12,6.54,2.36,8.39,5.11,2.05,3.04,4.28,6.63,4.49,10.1.44,7.31-.37,14.7-.71,22.05-.09,2-.33,4-.51,6-2.24.68-2.82,2.28-3.28,4.5-.65,3.19-.74,6.67-2.95,9.41Z"/><path class="cls-5" d="m1330.27,422.16c3.95.54,5.68,3.54,7.6,6.52,2.02,3.13,4.41,6.02,6.45,8.76h10.45c1.26.13,2.51.27,4.29.45.08,1.41.17,2.85.25,4.3-1.59,2.25-3.86,2.98-6.84,2.74-.61-.24.47,1.43.28.42,3.39.32,5.64,1.82,5.75,5.56-3.29,5.72-7.87,2.34-12.07,1.75-12.66-8.81-25.66-3.66-38.58-.88-5.54,1.19-11.02,2.51-16.52-.05-.99-.04-1.98-.08-2.97-.13-.64-.56-1.25-1.16-1.91-1.68-2.07-1.61-4.59-2.9-4.28-6.16-1.27-1.26-1.44-2.82-1.22-4.49.57-4.82,3.3-8.08,7.47-10.3,1.51-.72,3.13-.97,4.78-1.09,10.72-.21,20.91-3.14,31.09-6.12,2.01-.27,4.05-.72,5.97.39Z"/><path class="cls-30" d="m1303.82,307.8c-4.3.06-8.62-.04-12.9.25-1.88.12-3.71,1.02-5.57,1.57-5.57-2.78-11.37-4.67-17.56-5.63-2.49-.39-4.57-2.26-5.52-4.92-.8-5.31-1.38-10.63-1.35-16,2.39-4.16.91-9.86,5.28-13.23,10.45-.94,20.92-.26,31.37-.38,1.8-.02,3.61.12,4.72,1.9.96,3.81,2.51,7.32.27,11.57-1.28,2.42-1.13,6.37-.11,9.05,2,5.28.98,10.56,1.38,15.82Z"/><path class="cls-17" d="m1265.15,308.12c.1.75-.09,1.74.33,2.21,10.15,11.64,11.74,25.73,10.29,40.08-.86,8.48-4.97,16.38-9.03,23.99-.78,1.76-2.15,3.02-3.99,3.15-9.02.66-18.13,2.43-26.89-1.56-31.88,0-63.76,0-95.64,0-.53.44-1.07.44-1.61,0-1.02-.04-2.05-.08-3.07-.12v-3.93c1.54-.38,3.06-.75,4.58-1.13,2.04.13,4.08.36,6.12.36,37.51.02,75.02.02,113.09.02,8.33-6.38,10.76-16.03,11.99-25.98,1.47-11.85-2.93-21.68-11.77-29.68-12.14,0-24.21.03-36.27-.03-2.53-.01-5.06-.35-7.59-.54-1.61-2.11-1.5-4.15.27-6.11,2.02-1.33,4.31-1.36,6.6-1.39,7.14,1.29,14.13-.33,21.2-.96,7.16-.64,14.57-2.81,21.4,1.62Z"/><path class="cls-8" d="m1339.38,349.71c0-4.66-.01-9.32-.02-13.99,6.58-1.26,9.93,2.72,12.16,7.9,1.49,3.47,2.35,7.22,3.22,10.91,2.42,1.48,4.93.88,7.58.81-10.88-6.08-13.49-17.47-18.37-27.34-.05-.76.05-1.57-.2-2.25-.25-.68-.86-1.23-1.73-2.38,2.19-3,4.49-6.14,6.63-9.07h8.31c2.75,2.35,4.1,5.39,3.98,9.1.49.52.95,1.06,1.38,1.63.01,2.02.03,4.03.04,6.05-.36.37-.48.73-.36,1.1.12.37.24.55.36.55-.03,1.53-.07,3.06-.1,4.58-.01,6.14,5.02,3.46,7.91,4.53,3.07.03,6.15.25,9.2.04,4.61-.31,7.51,1.77,9.25,5.89-2.43,10.03-10.74,7.76-17.9,8.09,1.14,1.35,3.7,3.11,4.86,3.46,2.14,2.42.38,7.08-3.89,10.33-9.24,3.83-16.83-.99-24.62-4.72-1.45-.7-2.78-1.94-2.63-3.52.48-4.92-3.35-7.82-5.07-11.69Z"/><path class="cls-29" d="m993.47,51.66c0,1.57-.01,3.14-.02,4.72-1.83,1.42-1.32,4.45-3.74,5.43-.4.11-.77.31-1.09.61.79.12,1.46-.23,2.13-.59.96-.76,1.59-1.88,2.78-2.35,3.14-1.36,2.41,2.98,4.55,3.1,1.9,6.11.51,8.53-5.16,9.3-2.18.3-4.49-1.16-6.51.56-2.74,4.87,2.71,8.88,1.44,13.6-2.06,3.04-3.62,6.72-8.29,6.36-8.17-3.97-10.93-4.76-17.84-5.12-2.48,1.34-1.48,4.8-3.81,6.23-5.2-1.24-7.62-5.69-10.78-9.29,1.31-2.09,3.92-2.03,5.7-3.12-.67-4.25-1.24-8.19-1.07-12.2,4.11-.34,5.89-3.46,7.74-6.49-2.25-2.45-4.12-5.24-5.81-8.03-2.2-3.64-3.46-8.12,1.27-10.7,4.35-2.37,7.76.37,10.4,3.89,1.55,2.07,1.29,4.95,3.06,6.99,4.52,2.04,7.4.05,10.46-3.42,5.29-6,10.86-5.56,14.59.53Z"/><path class="cls-21" d="m885.37,215.1c11.55.1,23.11.24,34.66.27,17.46.05,34.91.01,52.77.01,3.91-8.72,6.61-17.23,4.25-27.31-1.13-4.82-2.31-9.61-3.74-14.36-6.5-1.76-13.13-.61-19.69-.81-16.03-.47-32.07.7-48.09-.63h-13.87c-.52.4-1.05.38-1.57,0-1.06.08-2.13.16-3.19.25-1.51-.15-3.02-.3-4.53-.44-.9-1.45-1.29-2.86.27-4.14,7.12-.1,14.24-.21,21.35-.31,1.36,2.47,3.68,1.2,5.5,1.21,20.54.11,41.08.07,61.62.08,2.82,0,5.64.11,8.47.16,6.83,14.28,7.07,28.98,2.81,43.96-.9,3.17-3.17,5.15-5.84,6.79-31.9.03-63.79.07-95.69.1-.19-3.19,1.63-4.52,4.51-4.85Z"/><path class="cls-12" d="m689.25,222.64c-20.28.08-40.56.14-60.85.24-4.88.02-9.75.13-14.63.19-1.63-.4-3.26-.81-4.9-1.21-.31-.75-.34-1.51-.11-2.29,1.15-.35,2.3-.98,3.46-1,5.37-.11,10.74-.04,16.11-.05,5.71,0,11.57.82,16.29-3.82.92-.9,2.71-.92,4.72-1.54-1.47-3.61-2.21-7.38,2.81-9.42.1-1.87.2-3.86.33-6.29,4.07-.81,5.17-3.89,4.64-6.79,3.03-1.97,5.24-3.78,7.76-4.91,1.92-.86,4.66-1.8,6.26-1.05,2.75,1.29,4.9,3.87,7.3,5.91-3.29,2.56-4.24,5.1-1.22,8.86,4.97,6.21,10.03,12.45,12.73,20.14.35,1.14.34,2.21-.7,3.03Z"/><path class="cls-26" d="m1211.27,247.67c3.7.59,5.84,2.48,6.14,6.47.31,4.17,4.34,7.48,2.97,12.1-1.94,2.53-4.08,4.94-4.82,8.19-6.18,7.23-19.5,9.7-27.15,5.05-1.9-1.16-2.8-2.88-2.79-5.08-1.64-5.71-8.13-10.38-3.79-17.39,1.84-5.13,4.6-9.19,10.78-9.29,6.22-1.85,12.44-1.74,18.66-.05Z"/><path class="cls-22" d="m1351.64,419.09c-2.21-.65-3.15-2.12-3.09-4.42.11-4.16-.45-8.39,1.65-12.28,1.71-7.02,7.16-11.76,10.69-17.68,1.39-2.44,3.08-4.62,5.53-6.11,1.25-.5,2.76-.09,3.86-1.11,6-3.6,11.89-7.39,18.02-10.74,5.2-2.84,11.11-3.39,17.83-5.41-.77,2.68-.74,4.4-1.59,5.26-9.32,9.41-18.83,18.63-28.19,28-6.1,6.12-12,12.44-18.08,18.58-2.08,2.1-4.42,3.94-6.63,5.91Z"/><path class="cls-16" d="m775.76,218.47c-.96,0-1.91,0-2.87,0-6.23-7.53-15.35-11.83-21.67-19.27-2.67-2.02-6.07-2.38-8.91-3.99-4.29-2.43-7.25-5.5-5.16-10.94,1.14-3.48,2.27-6.96,3.27-9.99,8.53-2.39,14.74,2.19,21.39,4.71,4.15,1.58,8.02,3.93,12.21,5.37,5.22,1.8,10.63,2.96,16.02.18.56-.29,1.46.09,3.56.3-4.4,3.31-7.93,5.96-11.98,9-5.6-4.61-12.54-3.36-20.5-2.67,5.18,7.11,9.44,13.9,14.71,19.77,2.43,2.71,6.84,3.63,10.81,5.59-1.03.19-1.91.36-2.79.53-2.44,1.91-5.25,1.73-8.08,1.42Z"/><path class="cls-29" d="m1265.15,308.12c-5.61-.05-11.25-.46-16.83-.04-5.39.41-10.7,1.8-16.08,2.52-1.87.25-3.84-.19-5.75-.41-1.48-.17-2.94-.47-4.41-.71-4.89-2.54-4.45-5.65-.99-9.1,2.21-1.84,4.66-3.24,7.59-3.39,3.02-.15,5.51-1.46,7.43-3.58,4.55-5.04,9.39-9.53,15.66-12.54,3.61-1.73,3.18-5.34,2.07-8.81-1.37-4.28-.88-8.12,3.68-10.4,2.06,2.15,4.11,4.3,6.17,6.44,1,.77,1.7,1.7,1.63,3.04v9.16c-1.14,1.05-2.18,2.01-3.22,2.97-3.5,4.95-8.32,8.03-13.31,9.86,4.88,1.41,10.56,2.75,14.86,7.11,3.82,1.47,7.65,2.93,11.56,4.43.5-.85.98-1.67,1.59-2.7,2.87,2.57,5.71,5.11,8.54,7.65-2.37,2.88-6.12,2.12-8.16,1.07-3.95-2.05-8.09-1.57-12.05-2.56Z"/><path class="cls-29" d="m978.05,114.87c-6.66.56-13.4,1.99-19.95,1.4-5.14-.46-10.25-1.42-15.47-1.18-2.94,4.79-1.74,11.25-6.24,15.4-2.28-.33-3.58.88-4.59,2.74-.4.74-1.12,1.32-1.69,1.97-1.87.72-3.24-.05-4.39-1.48-.04-5.67,1.1-11.13,2.79-16.51.36-1.15.1-2.49.13-3.74.07-.51.07-1.02,0-1.53,1.66-7.02,6.45-10.5,13.23-11.82,5.21-1.01,10.44-1.84,15.71-2.39,7.87-.3,14.79,5.76,22.98,3.43,3.82,1.16,4.99,3.57,3.41,7.27-1.59,2.5-3.3,4.89-5.93,6.44Z"/><path class="cls-24" d="m1257.51,261.65c-1.1,2.21-2.2,4.42-3.41,6.83,1.17,2.49,2.32,4.95,3.55,7.58-2.23,8.67-10.66,9.16-16.95,12.5.92,1.1,1.74,2.08,2.55,3.05-1.24,3.47-4.65,2.11-6.87,2.65-.44,1.67-.74,2.84-1.15,4.41-4.63.16-9.65-.8-13.38,3.1-3.33-2.14-1.47-4.27.28-5.98,2.13-2.08,3.68-4.61,5.69-6.76.94-.57,1.98-.77,3.05-.79,5.26-1.11,3.54-5.09,3.28-8.31-.27-3.41-2.18-6.09-4.57-8.44-1.21-1.76-1.42-3.49.1-5.19-.61-1.72-2.25-2.94-.44-5.36,2.26-3.02,3.8-6.45,8.08-6.99,3.63,1.95,7.26-.19,10.89.01,3.09,1.21,6.18,2.41,9.28,3.63v4.07Z"/><path class="cls-19" d="m613.66,331.13c-.03,6.17-.06,12.35-.09,18.52-2.97-1.25-5.92-2.52-8.9-3.73-10.75-4.37-20.53-10.73-31.38-15-7.26-2.86-13.89-7.35-22.15-11.84,5.43-.5,10.09-1.46,13.56.04,4.88,2.09,10.29-.53,14.67,2.74,8.85-.66,16.44,3.5,24.38,6.33,3.24,1.15,6.6,1.97,9.91,2.95Z"/><path class="cls-3" d="m621.52,311.03c.03,3.57-3.1,5.22-4.73,7.79-1.33-.59-2.83-.96-3.96-1.81-5.04-3.81-9.83-7.97-15.02-11.56-1.91-1.32-4.66-1.41-7.03-2.06-1.89-1.93-1.92-3.91-.18-5.95,3.17,2.63,7.65,3.33,10.17,7.05.46.68,2.4.36,3.65.5l.61.37-.38-.6c-1.02-2.24-1.66-4.76-3.12-6.67-3.98-5.19-7.96-10.48-12.62-15.04-3.12-3.06-7.43-4.88-11.14-7.35-6.47-4.31-13.64-6.99-20.97-9.38-.93-.84-1.03-1.85-.62-2.97,5.48-3.15,9.33,2.06,14.55,2.65-2.74-5.27-8.56-7.44-11.47-12.22.32-2.1,1.07-3.67,3.66-2.94,5.17,2.86,8.29,7.89,12.43,11.84,3.77,3.59,7.25,7.48,10.72,11.1,1.55-.59,2.61-.99,4.17-1.58.24,2.72.43,4.94.76,8.7,1.64,1.4,4.5,3.29,6.65,5.79,3.47,4.03,6.49,8.46,9.69,12.72,2.53,3.37,5.06,6.74,7.87,10.48,2.51-2.13,2.37-5.26,1.4-6.92-2.04-3.5-.92-6.97-1.24-10.43.72-1.29,1.49-2.45,3.2-1.3.12,6.73,1.14,13.33,2.95,19.8Z"/><path class="cls-12" d="m613.74,259.31c2.29.15,4.58.42,6.87.42,27.77.03,55.53.02,83.3.02,7.96,0,11.99-2.56,13.03-10.35.75-5.67-.11-11.66-1-17.4-.47-3.04-2.54-5.84-4.19-9.39h-17.51c-1.09-1.22-.94-2.35.27-3.39,5.81-2.27,12.13-1.09,18.06-2.66,2.3-.04,4.57.05,6.14,2.12,1.24,4.45,2.36,8.94,3.76,13.35,1.4,4.42,1.46,8.69-.06,13.12-.78,2.29-1.1,4.79-1.24,7.22-.23,4.05-3.29,6.99-3.97,10.83-1.59,1.68-3.7,1.52-5.72,1.52-19.87.05-39.75.04-59.62.01-2.06,0-4.09-.12-5.84-1.38-12.69-.1-25.37-.19-38.38-.29.72-4.83,4.36-2.44,6.12-3.74Z"/><path class="cls-2" d="m737.14,184.27c.67,2.37,1.34,4.75,2.06,7.3,3.42,1.62,6.61,4.11,10.93,4,.81-.02,1.68,1.68,2.52,2.58-.47,7.2-.64,14.5-6.17,20.16-.49.58-1,1.13-1.54,1.67-5.23,0-10.46.08-15.69-.07-.95-.03-1.88-.98-2.82-1.51-2.67-4.9-3.58-9.95-1.38-15.29,5.8-5.29,6.07-5.92,6.13-14.95,1.83-1.19,3.89-2.53,5.96-3.87Z"/><path class="cls-14" d="m1075.35,218.46q-.28-6.54-6.35-8.68c.38-1.34.69-2.74,1.19-4.07,2.07-5.5,3.51-10.78,2.36-17.04-.95-5.14-1.12-10.35-3.25-15.29-.52-1.2-1.23-3.7,1.47-4.4.77.01,1.55.09,2.31.03,5.13-.38,8.5,1.49,10.16,6.72,1.36,4.28,3.11,8.38,2.92,12.99-.26,6.3.64,12.61-1.44,18.86-1.25,3.76-2.07,7.6-4.66,10.74-1.48,2.92-3.06,2.4-4.69.14Z"/><path class="cls-10" d="m1029.07,94.72c3.62,1.87,5.05,5.26,6.24,8.41-1.18,7.13-7.15,6.96-11.73,8.75-1.25.49-2.49,1-3.74,1.5-1.98,2.42-4.94,2.4-7.62,3.07-6.26.19-12.04,2.36-17.86,4.39-1.65,0-3.05-.62-4.31-1.64-1.71-1.63-2.95-3.52-3.26-5.92.47-2.59,2.93-3.05,4.62-4.34,3.71-2.73,7.26-5.8,12.12-6.33,1.69-.25,3.4-.43,5-1.13.63-.31,1.27-.57,1.92-.84,4.94-1.39,7.98-6.2,13.11-7.25,2.01-.31,3.86.07,5.49,1.32Z"/><path class="cls-16" d="m712.81,218.26c-6.08,2.52-12.49,1.51-18.78,1.76-1.52,1.22-3.04,1.23-4.55,0-1.32-.67-2.65-1.33-4.68-2.36,0-1.52-.09-3.49.02-5.45.13-2.38-1.01-4.52-3.12-4.38-3.09.2-3.58-2.12-3.95-3.64-.7-2.89-2.36-4.61-5-5.9v-7.27c1.84-.13,3.77-.27,5.71-.41.83.93,1.56,1.98,2.5,2.78,4.22,3.6,4.46,4.46,2.36,10.1,1.92,1.73,3.94,1.22,6.05.27,2.02-.91,4.08-1.73,6.12-2.59q3.09,3.09.25,7.97c8.1.77,8.12.74,9.17-9.83.86-3.06.7-6.43,2.86-9.07,1.66-.89,3.23-.91,4.66.46-.39,1.32-.9,2.62-1.16,3.97-.56,2.91-.63,5.77,1.48,8.22,2.96,5.11,3.05,10.23.08,15.37Z"/><path class="cls-16" d="m987.41,85.62c-1.03-1.78-2.3-3.47-3.03-5.36-.78-2.03-1.2-4.23-1.45-6.4-.08-.67.89-1.46,1.38-2.19,5.06-1.58,8.52,4.35,13.53,3.01,2.96-3.59.24-8.71,3.53-12.07,2.99-.51,5.98-1.02,8.98-1.53,5.22,5.62,3.94,13.53,7.02,19.92.08.85-.08,1.64-.48,2.39-6.81,6.6-14.95,8.64-24.15,7.05-2.59-.7-4.7-1.93-5.32-4.81Z"/><path class="cls-25" d="m1291.33,451.72c5.95-.49,11.77-1.02,17.72-2.41,6.39-1.49,12.77-3.82,19.57-4.11,7.16-.3,13.08,1.94,18.47,6.3.58,2.28,5.61,2.38,3.03,6.21-.73.51-1.71,1.62-2.15,1.44-5.89-2.46-12.06-.93-18.07-1.48-8.71-.8-17.46-1.03-26.08-2.9-3.65-.79-7.62-.13-11.98-.13-.19-1.07-.35-2-.52-2.92Z"/><path class="cls-9" d="m993.47,51.66c-.8-.83-1.59-1.65-2.68-2.78h-7.57c-1.49,2.51-5.4,3.54-5.2,7.64.01.24-.58.73-.89.73-3.83-.03-7.65-.07-11.47-.3-.52-.03-.98-1.09-1.64-1.88.52-1.03,1.07-2.11,1.63-3.21-1.38-4.41-4.06-7.34-9.07-7.9-2.1.61-3.24,1.98-3.22,4.37.01,2.32-.32,4.99,2.16,6.1,3.7,1.67,4.09,4.62,3.98,7.99-1.77-.04-3.7.34-5.24-.27-1.05-.42-2.46-2.64-2.14-3.32,1.37-2.91-.7-4.96-1.24-7.36-.59-2.62-1.29-5.22-2-8.08,3.18-4.69,7.92-5.79,13.62-5.66,6.55.15,7.81,6.24,11.74,9.27,1.66-1.59,3.31-3.16,5.06-4.83,4.08,1.21,7.44,3.83,11.92,3.86,2.66.02,2.55,3.29,2.25,5.65Z"/><path class="cls-8" d="m1363.97,337.29c1.13-6.86,3.97-13.15,6.6-19.51,1.8-4.35,4.96-6.8,9.82-6.74,1.29.01,2.57,0,4.81,0,.91.99,2.28,2.48,3.28,3.57,1.65,9.66-4.38,14.64-10.23,19.5-1.99,1.65-4.89,2.17-7.21,3.49-.98.55-1.55,1.84-2.3,2.79-2.88.96-5.93,2.17-4.76-3.1Z"/><path class="cls-9" d="m1075.46,306.53c6.49-1.15,8.9,4.02,12.2,7.83.44.51,1.02.89,1.53,1.33-1.44,2.08-1.84,4.11.29,6.02.09,1.47-.39,3.51.39,4.29,2.22,2.22,2.64,4.62,2.51,7.55-.1,2.33,1.52,3.62,3.85,3.71,2.48.1,5.17-.51,6.91,2.93-2.53,1.55-5.15,3.16-7.77,4.76-4.99.58-4.42-4.77-7.11-6.64-2.2-2.81-5.29-4.44-8.26-6.23-4.52-2.96-1.9-7.2-1.81-10.98-2.96-3.34-7.39-1.09-10.62-3.01-1.05-.61-1.82-1.47-2.3-2.59-.18-7.05,4.01-9.14,10.19-8.98Z"/><path class="cls-3" d="m1322.44,309.42c-1.27,0-2.84.65-3.2-1.42,0-4.56.16-9.13-.07-13.68-.21-4.19-.85-8.36-1.3-12.54.96-.84,1.94-.84,2.92-.03.69,4.95,1.38,9.9,2.15,15.43,3-5.76,5.74-11.2,8.66-16.54,2.04-3.73,4.47-7.24,6.44-11,.77-1.46.79-3.33,1.15-5.01,1-.8,1.14-1.96,1.28-3.11,0-.9-.1-1.79-.21-2.68-.02-.64.18-1.2.59-1.68h3.77c2.75-4.52,5.61-9.37,8.68-14.08.53-.81,1.97-1.01,2.99-1.5,2.84,3.59-.24,6.17-1.64,8.95-1.38,2.73-2.87,5.41-4.41,8.06.11,3.69-3.2,4.98-5.15,7.17-6.1,6.86-9.88,14.9-12.35,23.65.14.9-.19,1.69-.61,2.45-.55,1.02-1.16,2.01-1.63,3.08-.38,1.24.34,2.6-.43,3.78-2.01,2.25-4.13,4.41-5.97,6.78-.84,1.08-1.12,2.6-1.65,3.91Z"/><path class="cls-3" d="m1106.18,218.31c1.57-7.17,2.72-14.46,4.83-21.46,1.51-5,1.63-9.53.28-14.56-1.65-6.14-2.36-12.54-3.59-18.8-.16-.81-.98-1.5-1.5-2.24-1.15-3.17-.14-4.17,3.02-3.02,1.73,7.13,3.47,14.26,5.44,22.35,1.43-8.69,2.68-16.3,3.93-23.92,1-.92,1.99-.77,2.98.01-.48,1.64-1.39,3.28-1.37,4.91.06,6.07-1.1,11.85-2.86,17.63-.7,2.31-.12,5.01-.12,8.75,2.76-2.7,5.01-4.78,7.13-6.99,2.28-2.37,4.45-4.86,6.67-7.3,3.19.6,2.61,2.43,1.45,4.45-6.13,5.81-12.25,11.61-18.1,17.16-1.1,8.17-2.15,15.8-5.05,23.02.23,1.07-.07,1.94-1.21,2.09-1.46.18-2.21-.53-1.94-2.08Z"/><path class="cls-23" d="m613.81,426.71c23.03-.02,46.07-.03,69.1-.05,2.03,2.33.87,3.75-1.39,4.86h-71.37c-.95-2.81-1.81-5.34-2.66-7.88.04-.48.08-.95.12-1.43,2.49-1.61,3.71-.07,4.74,1.92.43.89.66,1.89,1.46,2.58Z"/><path class="cls-5" d="m981.02,102.54c-6.28,1.43-12.26,1.47-17.82-2.66-1.16-.86-3.39-.28-5.13-.36-1.42-1.53-1.09-3.13-.17-4.74.11-.42.11-.85,0-1.27v-8.33c4.08-3.11,7.57.88,11.38.87,3.39-.01,6.79,2.28,10.2,3.56.1.75.2,1.5.3,2.24,3.45,3.21,4.33,6.72,1.24,10.68Z"/><path class="cls-22" d="m868.52,218.38c-.96.53-1.91,1.5-2.87,1.52-6.32.13-12.64.05-18.97.03,1-6.68,4.07-12.24,8.69-16.89h10.59c1.1,1.03,2.4,2.24,4.42,4.13-.57,3.45-1.22,7.33-1.86,11.2Z"/><path class="cls-23" d="m615.06,375.9h-5.82c.39-2.9-1.35-5.53,1.3-7.75.11.73.22,1.46.38,2.55,3.4,1.19,7.06.25,10.62.53,18.99,0,37.98,0,56.96-.01.39.33.54.67.45,1.04-.1.37-.21.56-.33.56-.07.76-.13,1.53-.27,3.08h-63.29Z"/><path class="cls-10" d="m646,263.35c23.73-.05,47.46-.1,71.19-.15,7.23.03,14.45.06,21.68.09.85.92.9,1.95.4,3.05-.61.52-1.27.61-1.97.19-28.83.02-57.66.04-86.5.06-1.93-.59-5.09.64-4.8-3.24Z"/><path class="cls-8" d="m1367.1,379c-1.56,2.05-3.11,4.11-4.67,6.16-3.95,2.5-7.32,2.5-9.63-2.18-.06-1.66,2.14-2.16,2.04-4.17-4.88-2.29-10.65.51-15.5-2.25-1.81-2.19-3.2-4.67-4.76-7.03-.05-3.64.12-7.17,2.17-10.45.83-1.32.77-3.2,1.11-4.82,4.69.88,4.23,5.2,5.2,8.3,1.49,4.73,3.83,7.06,9.22,6.85,5.72-.23,12.03-.5,14.79,6.53.01.5.05,1,.11,1.49.51.38.67.74.48,1.08-.19.33-.37.5-.55.5Z"/><path class="cls-10" d="m1164.79,309.28c-2.46-2.02-4.92-4.03-7.54-6.18-.56-7.02-1.43-13.97-1.59-20.93-.19-8.19,4.71-12.72,13.05-12.83,2.8-.04,5.6-.09,8.39-.13,4.19,3.56-1.04,3.11-1.91,4.53-4.08,1.54-10.18-.45-11.82,5.3-1.9,6.68-1.94,13.74.07,20.46,1.08,3.6,4.75,4.33,8.19,4.66,4.08.39,8.21-.16,12.28.63,2.35.85,3.95,2.12,2.84,4.95-2.28,1.95-5.04,1.92-7.8,1.92-3.32.05-6.64.31-9.96.38-1.84.04-4.42.61-4.2-2.76Z"/><path class="cls-4" d="m1012,115.01c2.62-.54,5.23-1.08,7.85-1.63,14.04.03,28.09.14,42.13.03,2.86-.02,5.49.38,7.83,1.89.6.38.57,1.74.82,2.65-20.03.09-40.06.18-60.09.27-.95-1.72.54-2.34,1.46-3.21Z"/><path class="cls-22" d="m610.74,402.24c2.67.61,6.15.11,6.11,4.44-1.33.61-3.36.87-3.87,1.88-3.32,6.73-8.85,9.15-15.97,9.05-.85-.01-1.72.75-2.78,1.24-1.29-1.42-2.62-2.89-3.77-4.16,3.13-9.11,5.6-10.85,14.13-11.12,2.03-.06,4.66,1.56,6.15-1.34Z"/><path class="cls-17" d="m1164.79,309.28c.39.57,1.05,1.67,1.12,1.64,4.13-2.16,8.57-1.26,12.89-1.38,1.19,1.64,1.33,3.25-.14,4.82-12.26,1.92-24.63.86-36.94,1.3-1.76-.1-3.52-.19-5.77-.32-.13-1.7-.25-3.34-.42-5.59,10.02-.16,19.64-.32,29.26-.48Z"/><path class="cls-29" d="m1175.7,272.48c.66-.52,1.48-.94,1.93-1.61.2-.3-.32-1.09-.52-1.66.54-1.81,1.4-3.59,1.55-5.43.22-2.73.69-5.17,3.17-6.76v7.59c2.22,3.06,5.91,5.13,6.16,9.43-3.38,4.19-2.76,6.88,2.01,8.46,2.54.84,5.54.1,7.71,2.24.94,2.06.21,3.7-1.3,5.14-2.71,1.36-5.35,2.92-8.51,3.08-5.1-2.62-10.83-4.56-12.22-11.24-.48-3.08-.76-6.16,0-9.24Z"/><path class="cls-29" d="m1211.27,247.67c-1.75.07-3.85-.46-5.18.32-2.95,1.73-5.35,1.78-8.31.02-1.32-.78-3.42-.23-5.17-.29,2.18-1.88,4.37-3.77,6.98-6.03-3.19-2.63-4.31-5.59-3.95-9.06,4.7-5.97,7.17-6.27,14.1-1.7.65,4.29.04,8.82-.76,12.72-.7,3.39,2.69,2.24,2.29,4.02Z"/><path class="cls-30" d="m1343.95,328c.93.8,2.17,1.43,2.75,2.44,1.58,2.76,2.46,6.02,4.41,8.45,2.48,3.08,4.04,6.24,3.79,9.15,2.9,2.03,4.95,3.78,7.28,5.01,2,1.06,4.32,1.52,8.19,2.81-7.56,2.58-13.54.93-20.55,1.8,1.51-2.05,2.42-3.29,3.09-4.21-1.26-3.98-2.08-7.9-3.72-11.43-1.84-3.95-6.23-4.69-9.84-6.3-1.12-4.59-2.24-9.18-3.36-13.78,3.81,1.79,5.01,5.24,6.45,9.32.5-1.09,1-2.18,1.5-3.27Z"/><path class="cls-13" d="m712.42,190.7c-1.49.05-2.97.1-4.46.15-3.39.98-4.74-2.79-7.52-3.23-1.04-1.23-2.09-2.46-3.14-3.71,1.09-.8,2.02-1.48,3.45-2.53-3.09-2.46-4.28-5.56-3.61-9.25,8.52-.4,14.71,3.21,18.57,10.82l-.05-.06c1.36,1.28.08,3.46,1.6,4.69l-.05-.06c.86,1.07.9,2.13-.06,3.16-1.57,0-3.15.01-4.72.02Z"/><path class="cls-30" d="m1367.07,375.92c-1.77-1.41-3.54-2.83-5.69-4.54h-18.29c-.16-2.05,1.7-4.08-.77-5.92-1.22-.91-.93-3.68-1.63-5.5-.76-1.98-1.88-3.82-2.84-5.72.51-1.51,1.01-3.03,1.52-4.54,2.64,1.8,5.28,3.6,7.97,5.43-.74,2.7-1.39,5.04-1.93,6.99,3.43,1.63,6.43,3.17,9.52,4.5,5.33,2.3,10.89,3.56,16.75,3.01-1.28.78-2.56,1.56-4.62,2.81v3.46Z"/><path class="cls-29" d="m1248.23,253.96c-.75.84-1.49,1.67-2.54,2.85h-8c-.12-1.02-.23-1.94-.35-2.86.44-3.58-1.57-6.52-2.54-9.74-1.59-5.26-.69-7.05,4.19-8.79,2.68-2.09,5.21-1.77,7.29.79,2.07,2.55,2.48,5.55,1.25,8.58-1.02,2.5-3.25,4.77-.85,7.62l1.56,1.56Z"/><path class="cls-29" d="m1214.37,272.55c-.07-4.07,2.23-5.89,6-6.3.6,2.34,4.08,3.22,3.19,6.31-.43.3-.57.6-.42.9.14.3.28.45.43.45l.06.05c2.44,3.07,2.09,6.64,1.89,10.2-.82,4.86-2.67,9.32-5.29,13.49-1.28,2.02-2.67,4.05-5.39,3.5-3.68-.73-2.54-3.81-2.66-6.21-.33-4.94,2.69-9.05,3.42-13.68.44-2.83.46-5.99-1.23-8.71Z"/><path class="cls-29" d="m712.81,218.26c-.03-5.12-.05-10.25-.08-15.37,4.11.07,8.21.14,12.32.21,2.21,4.94,1.25,10.17,1.38,15.29l-7.74.29c-1.96-.14-3.92-.28-5.88-.42Z"/><path class="cls-26" d="m556.9,263.12c-.04,1.07-.07,2.14-.11,3.21-2.06,4.48-6.6,4.7-10.5,6.42-4.14-1.9-5.73-5.39-6.92-9.65,2.73-2.85,4.53-6.84,9.56-6.24,5.86-2,7.51,1.36,7.97,6.25Z"/><path class="cls-26" d="m590.6,297.44c.06,1.98.12,3.96.18,5.95-.41,3.81-2.5,6.25-6.33,6.04-3.84-.22-6.88-1.98-8.56-6-1.76-4.19-.12-6.71,3.36-9.17h7.31c1.28,1.01,2.66,2.1,4.04,3.19Z"/><path class="cls-28" d="m1106.18,218.31c1.37,2.35,1.8,2.35,3.15,0,2.04,1.19,3.9,2.72,6.5.76.99-.75,2.73-.52,4.13-.73,3.65-1.03,7.03-.89,9.76,2.19.03,1.36-.64,2.22-1.87,2.7-2.05.1-4.11.2-6.16.29-15.39-.04-30.79-.08-46.18-.13l-.14-4.93c1.61,1.42,3.16,1.11,4.69-.14,3.8,2.6,8.18,1.14,12.23,1.44,4.57.34,9.26-.9,13.9-1.46Z"/><path class="cls-26" d="m591.79,237.42c3.13,3.05,4.07,6.79,3.21,11.69-2.42,1.81-5.22,3.91-8.35,6.24-1.63-1.72-3.34-3.52-5.02-5.28-.63-10.84,1.21-13.14,10.16-12.66Z"/><path class="cls-22" d="m951.76,68.89c.94,1.19,1.87,2.37,3.2,4.06-1.53,2.83-3.08,6.23,2.36,9-4.16.92-7.17,1.59-10.18,2.26-2.99-4.75-5.98-9.51-9.21-14.64,3.56-.82,7.03-1.8,10.57-2.32.99-.15,2.17,1.05,3.26,1.64Z"/><path class="cls-30" d="m556.9,263.12c-1.44-1.94-2.88-3.89-4.39-5.91-1.13-.11-2.35-.23-3.58-.34.01-2.02.03-4.05.04-6.07,3.97-.3,7.5.96,10.79,3.05,6.72,3,10.81,8.84,15.68,13.81-1.58,2.45-3.08,1.79-4.82,1.04-4.54-1.95-9.15-3.73-13.73-5.58Z"/><path class="cls-26" d="m618.57,291.23c-1.07.43-2.13.87-3.2,1.3-2.09-2.49-4.19-4.98-6.31-7.51.64-5.38,3.51-8.53,8.7-9.51,7.72,4.99,8.37,7.21,4.46,15.29-1.17.14-2.41.29-3.65.44Z"/><path class="cls-7" d="m1109.23,158.23c-2.27-.26-3.3.72-3.02,3.02-3.55.41-6.62-.74-8.73-3.53-2.92-3.86-2.92-7.86.59-11.72h7.83c1.34,1.41,3.26,3.44,5.19,5.49-.68,2.46-1.27,4.6-1.85,6.74Z"/><path class="cls-24" d="m1029.07,94.72c-2.03.03-4.06.06-6.09.09-4.1-3.03-5.77-7.03-4.81-12.08.23-2.97.65-5.86,3.18-7.9,1.82.57,3.86.79,5.41,1.78,2.09,1.35,3.8,3.29,5.29,4.64.34,5.32-4.53,8.66-2.97,13.46Z"/><path class="cls-7" d="m1121.58,156.68c-.99,0-1.99,0-2.98-.01-2.24-2.46-4.48-4.92-6.94-7.61,1.47-2.88,2.69-5.26,3.88-7.59h8.15c3.13,3.18,2.81,7.19,2.36,11.74-1.32,1.03-2.9,2.25-4.48,3.47Z"/><path class="cls-26" d="m559.77,253.84c-4.01.46-7.83.24-10.79-3.05-.54-1.9-1.07-3.79-1.78-6.29,1.1-1.27,2.4-2.76,3.75-4.31h7.92c3.55,2.58,4.25,6.43,4.04,10.65-1.05,1-2.1,1.99-3.15,2.99Z"/><path class="cls-7" d="m1132.48,178.13c-.44-1.5,1.1-3.64-1.45-4.45-.24-3.78,2.68-4.77,5.2-6.48,2.44-1.66,4.94-1.48,7.29-1.12,3.19.48,4.07,6.62,1.56,9.63-3.53,4.22-7.78,4.85-12.6,2.42Z"/><path class="cls-3" d="m957.91,94.78c.06,1.58.11,3.16.17,4.74-8.19.63-16.19,2.19-22.61,4.63-2.78,3.17-4.8,5.48-6.82,7.78-3.53-1.61-.17-4.63-1.87-6.47,4.48-4.63,9.33-6.59,15.29-7.75,5.26-1.02,11.01.19,15.85-2.93Z"/><path class="cls-7" d="m1097.71,193.85c5.03,5.39,5.1,6.22,1.5,13.48-9.42.52-9.84.27-10.03-5.73-.23-7.36.19-7.76,8.53-7.75Z"/><path class="cls-30" d="m1350.23,258.6c-.35-.67-.71-1.33-1.25-2.34,2.25-3.47,4.76-7.11,6.98-10.91.57-.98.24-2.49.32-3.76h-.02c3.3-2.58,6.78-3.95,10.79-1.57l.03,1.63c.47,4.12-2.02,6.72-4.69,9.24-3.65,3.21-6.74,7.31-12.17,7.71Z"/><path class="cls-11" d="m1246.67,252.4c-1.01-.71-2.01-1.42-3.37-2.37,2.26-4.7,5.95-9.37.5-14.61h-4.81c.04-.76.07-1.53.15-3.05,4,0,8.04-.21,12.03.1,1.54.12,3.85,1.1,4.26,2.24.58,1.61.3,4.12-.65,5.56-1.51,2.3-3.75,4.19-5.9,5.99-2.02,1.69-2.49,3.72-2.21,6.13Z"/><path class="cls-29" d="m706.38,199.96v9.72c-5.04,3.1-9.94,3.1-14.76.46,1.58-1.42,3.6-2.79,4.99-4.63,1.1-1.44,1.18-3.4-1.13-4.35,1.66-1.45,3.33-2.9,4.99-4.35,2.95-.79,4.7.66,5.91,3.14Z"/><path class="cls-19" d="m1362.4,250.88c1.56-3.08,3.13-6.16,4.69-9.24,3.52-.41,6.29,1.08,9.14,3.63-.15,2.9,1.62,7.28-2.47,8.2-3.59.8-8.73,3.01-11.37-2.59Z"/><path class="cls-7" d="m1129.37,221.54c-.89-.52-1.82-1.54-2.66-1.47-2.51.21-4.67-.47-6.74-1.74.06-7,4.45-9.44,9.04-9.17,3.73.22,4.73,1.05,4.97,4.94.09,1.52.02,3.04.02,4.53-1.05.99-2.06,1.95-3.07,2.91-.52.53-1.03.52-1.55,0Z"/><path class="cls-10" d="m1265.31,271.13c-.54-1.01-1.09-2.03-1.63-3.04,13.94-.05,27.87-.11,41.81-.12.39,0,.79.56,1.24.91,0,3.47-3.03,1.54-4.44,2.46-12.32-.07-24.65-.14-36.97-.21Z"/><path class="cls-19" d="m1320.78,281.76c-.97.01-1.94.02-2.92.03-4.97-1.71-5.57-2.74-4.83-8.35.47-3.53,1.38-3.97,8.25-3.95,6.03,5.82,6,6.75-.51,12.27Z"/><path class="cls-29" d="m1350.12,457.71c.08-1.96-.37-3.03-2.79-3.24-2.08-.19-2.04-.69-.24-2.97,1.5.02,3.03-.15,4.47.12,1.14.21,2.19.96,3.59,1.62.9-1.1,1.8-2.18,2.69-3.27,2.29-1.84,3.43.04,4.71,1.46,3,.79,6.01,1.57,9.59,2.51-4.07,5.42-9.56,3.24-14.31,3.78-1.55,1.04-3.11,1-4.68.04-1.02-.02-2.03-.03-3.05-.05Z"/><path class="cls-19" d="m1339.31,247.76q-5.32-.13-10.31-3.42c-1.52-4.61-.5-8.26,4.59-10.7,1.72.75,3.7,1.6,5.7,2.47v11.68l.02-.02Z"/><path class="cls-6" d="m1001.37,62.6v14.8c-7.16,1.7-11.57-3.71-17.06-5.73.04-.75.08-1.49.15-2.81,1.2,0,2.38-.02,3.55.02.21,0,.39.33.62.41,7.52,2.42,9.29,1.16,9.44-6.71l3.29.02Z"/><path class="cls-13" d="m1223.54,284.6c.03-3.55.06-7.09.09-10.64h4.45c-.39-1.39-.71-2.38-.93-3.4-.25-1.14-.42-2.3-.72-4.01,1.42-.11,2.35-.19,3.27-.26.48,1.56-1.28,3.86,1.54,4.63,2.58,6.19,3.99,12.37-.04,18.54-.95,0-1.9,0-2.85-.01-2.38-.85-3.24-3.21-4.82-4.85Z"/><path class="cls-19" d="m1342.35,286.33c-.6-3.89.51-7.03,4.09-9.07h7.37c.37.6.84,1,.86,1.42.39,8.72.32,9.65-9.16,9.24-1.77.91-2.54-.2-3.15-1.59Z"/><path class="cls-19" d="m1367.06,240.01c-3.6.52-7.19,1.04-10.79,1.56-.71-2.61-1.41-5.22-2.06-7.6,4.36-3.77,8.47-4.26,12.9-1.65.88,1.02.89,2.06.07,3.12-.04,1.52-.08,3.05-.12,4.57Z"/><path class="cls-2" d="m1209.74,230.93c-2.58-.52-5.16-1.04-8.1-1.63-1.8,1-3.9,2.17-6,3.34-.46-.79-1.51-1.83-1.3-2.34,1.83-4.46,4.92-7.37,10.11-7.26,1.27.03,2.55,0,4.17,0,1.26,1.2,2.72,2.58,4.5,4.26-.67.8-1.26,1.51-1.85,2.22-.64.3-1.15.75-1.5,1.37l-.03.05Z"/><path class="cls-10" d="m681.68,311.05c-2.5-2.18-4.97.22-7.5.13-9.34-.33-18.69-.16-28.04-.17-.41-2.46,1.09-3.3,3.12-3.7,6.64.15,13.28.3,19.92.44,2.69-.82,5.39-.78,8.08-.02,1.43,0,2.85,0,4.28,0,1.58-.51,1.96.16,1.57,1.59-.48.57-.95,1.15-1.43,1.72Z"/><path class="cls-10" d="m811.39,447.08c1.23-.06,2.46-.13,3.72-.19.89,1.61,1.71,3.08,2.52,4.56-2.6,3.09-7.46,2.96-9.57,6.72-.82,1.44-1.57,2.93-2.81,4.07-2.51-.53-5.01-1.05-7.52-1.58-1.09-1.43-.3-2.69.33-3.98,3.66-4.28,7.59-8.21,13.34-9.6Z"/><path class="cls-3" d="m715.71,182.95c-4.87-5.88-11.73-8.33-18.57-10.82-3.31-2.09-.39-3.03,1.06-4.6,4.01,2.1,8.12,4.24,12.22,6.41,3.6,1.91,5.6,4.78,5.29,9Z"/><path class="cls-25" d="m1342.35,286.33c1.05.53,2.1,1.06,3.15,1.59-4.2,3.38-8.36,6.8-12.63,10.09-.71.54-1.87.49-2.82.72-.4-.53-.77-1.09-1.22-1.59-.55-.6-1.17-1.15-1.75-1.72.96-.45,1.92-.89,2.87-1.34,1.08-.89.81-2.4,1.58-3.43.4-.41.79-.83,1.19-1.24,2.3.17,4.49.31,6.27-1.8.68-.8,2.21-.88,3.36-1.28Z"/><path class="cls-6" d="m1016.57,81.33c-1.01-1.06-2.93-2.17-2.87-3.16.37-6.04-3.05-11.26-3.36-17.1,5.73.32,5.86.45,7.88,7.63-1.37,4.1,4.4,9.14-1.66,12.63Z"/><path class="cls-3" d="m811.39,447.08c-.22.44-.34,1.1-.69,1.27-4.59,2.27-8.05,5.93-11.7,9.36-2.32,1.51-4.71,2.17-7.3.68-.78-.63-.92-1.38-.42-2.25.51-.52,1.01-1.04,1.52-1.56.96-.19,2.31-.04,2.81-.63,3.53-4.13,9.06-4.95,13.14-8.14,1.34-1.05,2.3-.32,2.63,1.25Z"/><path class="cls-12" d="m805.24,462.23c.33-1.57-1.22-3.72,1.4-4.6,7.46-2.91,14.57-1.43,21.54,1.7-.54,2.22-1.98,3.04-4.22,3.04-2.69,0-5.38.23-8.06.37-3.55-.17-7.11-.34-10.66-.51Z"/><path class="cls-30" d="m578.19,392.83c1.85-1.02,3.67-2.83,5.54-2.87,3.17-.08,5.79-1.08,8.42-2.53,3.22-1.78,5.08-.44,6.66,3.46-5.94-.15-10.92,1.65-15.84,3.67-.73-2.99-3.18-1.19-4.8-1.72Z"/><path class="cls-21" d="m706.38,199.96c-1.97-1.05-3.94-2.1-5.91-3.14,1.79-3.07,1.83-6.14-.03-9.2,1.19-.18,2.12-2.26,3.63-.17.99,1.36,2.57,2.29,3.89,3.41-.08,3.12.5,6.34-1.59,9.11Z"/><path class="cls-13" d="m791.35,457.66c2.55.02,5.1.03,7.65.05-.43.98-.86,1.96-1.28,2.94-2.54,1.85-5.53,2.25-8.33,1.46-1.17-.33-2.29-2.42-2.6-3.89-.46-2.15,1.5-2.02,2.96-2.07.51.52,1.16.91,1.6,1.5Z"/><path class="cls-25" d="m1362.56,451.44l-4.71-1.46c-2.41-1.86-4.82-3.73-7.17-5.55,2.75-.71,5.69-1.47,8.62-2.23.35,1.12.36,2.65,1.12,3.29,1.97,1.66,2.11,3.73,2.14,5.95Z"/><path class="cls-25" d="m1016.57,81.33c2.42-3.32,2.36-6.31-1.45-8.67,1.14-1.45,2.12-2.71,3.1-3.97,1.04,2.05,2.08,4.09,3.12,6.14-.57,2.63-1.14,5.25-1.71,7.88-1.1.83-2.16.71-3.19-.13.06-.41.1-.83.12-1.25Z"/><path class="cls-25" d="m1342.37,261.65c.32,2.47-.77,3.44-3.19,2.99-2.27-3.86-1.69-7.91-.83-11.99.34-1.63.64-3.26.96-4.9l-.02.02c.52.68,1.45,1.32,1.5,2.03.18,2.44.06,4.9.06,7.35.05.44.05.88,0,1.32.92.85.54,2.34,1.53,3.16Z"/><path class="cls-19" d="m1363.97,337.29c-.41,4.1,2.6,2.94,4.76,3.1.48.48.96.96,1.44,1.44-.44.53-1.23,1.55-1.27,1.52-2.92-2.07-5.01.22-7.8,1.56.33-2.73-1.43-5.37,1.17-7.61.57,0,1.14,0,1.71-.01Z"/><path class="cls-25" d="m612.28,425.29c-2.27.05-1.46-4.56-4.67-3.08.51-.53,1.01-1.06,1.52-1.59,1.78-.44,3.56-.89,6.06-1.51-.53,2.34-.97,4.27-1.41,6.19-.51.52-1.01.54-1.51-.01Z"/><path class="cls-10" d="m775.76,218.47c2.62-.89,5.21-1.95,8.08-1.42.95.57,1.9,1.13,2.86,1.7-4.27,1.81-7.49,1.73-10.93-.28Z"/><path class="cls-3" d="m988.9,60.98c.52-.65,1.5-1.32,1.47-1.93-.14-2.41,1.15-2.83,3.08-2.67l.09,3.1c-.49,1.02-.99,2.04-1.48,3.05-1.77.95-3.27,1.33-3.15-1.55Z"/><path class="cls-30" d="m1367.18,235.44c-.02-1.04-.05-2.08-.07-3.12.98.51,1.96,1.01,2.94,1.52-.96.53-1.91,1.07-2.87,1.6Z"/><path class="cls-25" d="m1129.37,221.54c.52,0,1.03,0,1.55,0-.38.99-.75,1.97-1.13,2.96-.65-.43-1.3-.86-1.95-1.28.51-.56,1.02-1.12,1.52-1.68Z"/><path class="cls-13" d="m1353.16,457.76c1.56-.01,3.12-.02,4.68-.04-1.74,2.11-2.87,2.12-4.68.04Z"/><path class="cls-3" d="m882.63,167.94c-.09,1.38-.18,2.76-.27,4.14-.52-.9-1.23-1.76-1.44-2.72-.07-.33,1.1-.94,1.71-1.42Z"/><path class="cls-3" d="m717.26,187.58c-2.87-.77-1.13-3.11-1.6-4.69,2.63.85,1.18,3.09,1.6,4.69Z"/><path class="cls-3" d="m717.14,190.68l.06-3.16c2.44.71,1.51,2.47,1.26,4.02-.44-.29-.88-.57-1.32-.86Z"/><path class="cls-30" d="m1367.1,379l.08-1.58,3.1.07-3.18,1.51Z"/><path class="cls-19" d="m1362.36,332.73c-.36-.36-.72-.72-1.08-1.08.36-.19.72-.38,1.08-.57,0,.55,0,1.1,0,1.65Z"/><path class="cls-19" d="m1362.33,325.03c-.46-.54-.92-1.09-1.38-1.63.46.54.92,1.09,1.38,1.63Z"/><path class="cls-10" d="m608.77,219.57c.04.76.08,1.53.11,2.29-1.55-.69-1.46-1.46-.11-2.29Z"/><path class="cls-29" d="m1209.77,230.89c.5-.46,1-.91,1.5-1.37-.5.46-1,.91-1.5,1.37Z"/><path class="cls-13" d="m1223.57,273.91c-.39-.14-.78-.28-1.17-.42.39-.31.78-.62,1.17-.93-.02.45-.02.9,0,1.35Z"/><path class="cls-25" d="m791.35,457.66c-.53-.5-1.07-1-1.6-1.5.51-.02,1.02-.03,1.54-.01.02.51.04,1.01.07,1.52Z"/><path class="cls-30" d="m1123.22,443.79c1.34,3.19-2.83,2.46-3.17,4.46-.69.98-1.69,1.17-2.79,1.15-1.48-.16-2.87.3-4.27.69-6.91.63-13.82,1.09-20.69-.28-1.24-1.11-2.54-1.22-3.88-.14-2.49.72-4.9.75-7.14-.77-2.52-3.09-1.32-7.02-2.36-10.45-.2-1.13-.16-2.26.15-3.37,1.52-2.21,1.65-4.6.83-7.1.04-6.57,1.16-13.05,1.56-19.6,3-5.2,1.46-12.26,6.74-16.54,6.19-2.17,12.6-.89,18.91-1.16,1.82.05,3.63.08,5.45-.04,3.17.19,6.53-.35,9.05,2.35-2.12,10.45-5.86,20.69-4.54,31.59.76,6.29,2.35,12.4,6.04,17.75.58.29.79.6.63.94-.17.35-.34.53-.52.53Z"/><path class="cls-5" d="m1235.84,375.99c7.9-.02,15.81.07,23.71-.14,2.4-.06,4.79-.94,7.18-1.45.73.51,1.45,1.44,2.21,1.47,3.85.15,7.7.06,11.55.06,2.47,1.89,3.54,4.03,1.23,6.78-8.47,3.15-17.26,1.17-25.9,1.49-10.83.4-11.55.65-14.33,10.97-2.72,10.11-2.44,20.27-.54,30.49,1.17,6.29,3.85,10.52,11.08,10.08,1.52-.09,3.01.58,4.25,1.6,1.44,2.22,1.27,4.35-.35,6.39-5.65,0-11.3.02-16.94.03-.64-.37-1.15-.87-1.49-1.53-1.65-5.9-3.31-11.8-4.95-17.7-1.74-6.27-1.24-19.87-.36-26.07.95-6.66,2.48-13.01,5.03-19.21.32-.77-.88-2.17-1.38-3.28Z"/><path class="cls-16" d="m1107.77,392.66c-6.69.07-13.37.14-20.06.2-1.93-2.72-1.34-4.76,1.67-6.14.88.49,1.77,1.4,2.64,1.39,7.31-.13,14.73,1.2,21.86-1.51h13.84v4.74c-.42.51-.9.96-1.42,1.36-1.56.1-3.12.19-4.68.29-3.08-.11-6.16-.22-9.25-.33-1.53-.83-3.06-.83-4.59,0Z"/><path class="cls-23" d="m1237.5,442.25c.5.51.99,1.02,1.49,1.53-11.13.01-22.26.07-33.39-.03-1.23-.01-2.46-.93-3.69-1.43,11.86-.02,23.73-.04,35.59-.07Z"/><path class="cls-23" d="m1164.87,442.31c-.47.51-.94,1.47-1.41,1.47-9.35.09-18.7.09-28.05,0-.47,0-.94-.96-1.41-1.48,10.29,0,20.59,0,30.88,0Z"/><path class="cls-23" d="m1123.22,443.79c-.03-.49-.07-.98-.11-1.47,1.06,0,2.12-.01,3.17-.02-1.02.5-2.04.99-3.06,1.49Z"/><path class="cls-21" d="m1126.28,392.69c.47-.45.95-.9,1.42-1.36-.47.45-.95.9-1.42,1.36Z"/><path class="cls-5" d="m1138.59,376c.54,0,1.07,0,1.61,0-.35.36-.7.71-1.05,1.07-.18-.35-.37-.71-.55-1.06Z"/><path class="cls-14" d="m976.54,219.84c1.03-2,2.18-3.94,3.07-5.99,5.19-12.07,3.61-24.36,1.07-36.68-.55-2.66-.75-5.39-1.12-8.08,4.05-.1,8.1-.2,12.15-.3,1.81-1.34,3.88-1.78,6.08-1.79,2.1-.12,4.2-.07,6.31-.03,2.07.04,4.15.04,6.22.03,2.08-.05,4.17-.03,6.25-.04.85-.03,1.7-.04,2.56-.06,3.4.23,7.04-.59,9.89,2.15-1.49,8.03-3.14,16.04-4.38,24.11-.5,3.25-.08,6.63-.08,10.49,2.21,2.55,4.77,5.52,7.37,8.52-1.95,2.52-3.98,5.16-6.01,7.79-8.13,4.48-16.94,1.24-25.39,2.16-3.01.33-6.16.42-8.57-2.09-5.14-.06-10.27-.12-15.41-.19Z"/><path class="cls-4" d="m876.16,269.31c11.06-2.4,22.28-1.35,33.44-1.4,23.34-.12,46.69,0,70.03.02.52.49,1.04.52,1.55,0,3.6-.03,7.21-.07,10.81-.1.39,0,.78,0,1.17,0,.86-.96,1.97-1.43,3.19-1.74,10.11-.8,20.22-.38,30.32-.15,5.72,1.66,11.54,1.45,17.38.86,5.24.43,10.49.74,15.76.25,2.34.59,4.07,1.63,3.24,4.51-1.65,2.13-3.89,2.35-6.32,2.02-1.01-.22-2.02-.39-3.05-.39-56.17-.03-112.34-.32-168.48.16-5.47,1.08-11.04,1.97-14.87,6.7-1.46,1.64-1.19,3.55-.79,5.47.17,2.09-.5,4.08-.59,6.14-.07,1.46-.05,2.91-.03,4.37.05,1.54.06,3.08.08,4.62-.13,2.87.14,5.64,1.92,8.06,4.16,5.69,10.29,6.13,16.52,6.17,24.25.16,48.5-.18,72.75.16,31.37.07,62.74-.02,94.11.05,3.57,0,7.22-.53,10.64,1.09.99.45,1.6,1.21,1.81,2.28-.09,1.77-1.21,2.71-2.69,3.36-1.94.74-3.99.9-6.03.9-29.91,0-59.81.32-89.71-.14-3.85.06-7.71.12-11.57.06-1.45-.11-2.89-.06-4.34.08-23.36-.01-46.72.12-70.07-.02-2.32-.21-4.66-.27-6.98-.53-.9-.12-1.77-.36-2.62-.67-8.96-3.92-12.94-10.86-12.55-20.53.11-2.78-.03-5.57.02-8.36-.09-2.98-.05-5.96.02-8.94.01-2.12.02-4.24.56-6.31,3.27-6.23,8.55-8.61,15.38-8.05Z"/><path class="cls-22" d="m876.16,269.31c-5.24,1.67-10.4,3.47-13.96,8.05-5.6-3.02-10.81-2.37-16.22.94-4.25,2.59-9.29,2.51-14.19,2.38-4.34-.12-8.18-1.08-10.12-5.48-1.91-4.35-1.88-8.45,1.94-11.89,4.64-1.58,9.29-3.16,13.93-4.73,1.35,1.11,3.36,1.95,3.94,3.37,2.12,5.23,6.68,5.88,11.06,5.74,3.32-.1,6.19,2.26,10.01.45,2.93-1.39,7.05-.38,10.62-.2,1.02.05,1.99.91,2.99,1.4Z"/><path class="cls-28" d="m1027.46,267.81c-11.31.02-22.62.04-33.93.07-.51.43-1.03.46-1.55.02v-.07c-2.72-5.18-5.26-10.27-6.75-16.16-1.91-7.54-.55-14.28,1.65-21.11,1.19-3.67,3.35-7.03,5.08-10.53,11.32-.03,22.64-.05,33.96-.08,2.11.39,1.5,1.98,1.47,3.32-4.64,3.15-9.89,1.75-14.88,1.83-14.18.22-21.55,8.79-19.56,23.13,1.37,9.91,2.97,11.82,11.38,13.52,4.02,1.34,8.16.86,12.27.84,3.8.19,7.7-.46,11.33,1.25,1.83,1.56,1.5,2.87-.47,3.98Z"/><path class="cls-22" d="m837.59,255.5c-2.28.06-4.64-.24-6.83.25-9.2,2.08-10.54,1.57-14.65-6.47,1.65-5.64,5.5-7.88,11.26-7.78,2.39.04,4.8-.89,7.2-1.38.34.63.88,1.22.99,1.89.73,4.49,1.36,8.99,2.03,13.49Z"/><path class="cls-5" d="m981.18,267.93c-.34.36-.68.72-1.02,1.08-.18-.36-.35-.72-.53-1.08.52,0,1.03,0,1.55,0Z"/><path class="cls-18" d="m1223.54,284.6c3.03.21,4.54,1.91,4.82,4.85-.09,5.12-4.95,6.52-7.54,9.7.35.87.7,1.74,1.05,2.61-.93,1.26-1.85,2.52-2.77,3.76,1,1.32,1.99,2.64,2.99,3.96-2.12.02-4.24.04-6.36.06-4.57,3.35-11.63.22-15.31,5.88-1.57-.01-3.15-.02-4.72-.03-1.58-4.31-6.07-4.05-9.23-5.88.3-2.33-.66-3.42-3.06-3.08-8.29-1.53-12.99-7.22-16.56-14.25-1.67-3.29-3.25-6.75.01-9.73,3.04-2.78,6.69-3.53,10.34-.67,1.46,4.18,4.12,7.11,8.68,7.63,2.17.25,2.05,1.68,2.28,3.09,3.61,1.2,7.42,1.46,11.08,2.42,1.78.12,3.47-.27,5.13-.9,3.31-.95,6.61-2.6,9.93-.04-.25,1.91-.5,3.81-.79,5.97,2.62,1.24,4.34-.35,5.38-2.94,1.65-4.09,3.11-8.26,4.66-12.4Z"/><path class="cls-12" d="m1186.46,309.51c2.08-.37,4.16-.73,6.97-1.23,3.23,1,2.2,4.28,2.26,7.11-4.44,1.33-8.88,2.66-13.34,3.99-1.04-1.42-2.37-3.22-3.69-5.02.05-1.61.09-3.21.14-4.82,2.56-.01,5.11-.02,7.66-.04Z"/><path class="cls-12" d="m1200.41,315.42c.53-.93.85-2.38,1.64-2.7,2.2-.9.03-1.92.47-3.18h13.2c-.02,1.81-.03,3.61-.05,5.42-2.1,1.31-4.21,2.63-6.21,3.88-3.11-1.17-6.08-2.29-9.05-3.42Z"/><path class="cls-21" d="m981.11,453.33c-16.43,0-32.85,0-49.28,0-1.59.68-3.17.69-4.76,0-3.04,0-6.09,0-9.13-.01-.6.38-1.2.75-1.81,1.11-.92.02-1.83.05-2.75.07-.95-.54-2.14-.85-2.2-2.26.97-4.08,4.22-6.19,7.36-8.37,2.3-1.6,5.08-2.93,4.2-6.47-.8-3.22-3.05-5.41-6.16-6.24-5.29-1.41-10.45-1.45-15.41,1.72-9.38,6-9.45,5.89-18.76-.73-.73-3.91,2.55-6.8,2.69-10.51,3.12-3.13,3.36-6.73,1.27-10.38-4.22-7.38-7.78-15.69-18.5-15.24-1.24-.33-2.29-.89-2.84-2.14.79-2.68,2.92-3.18,5.3-3.28,26.82,0,53.63,0,80.01,0-1.05-.81-3.01,0-4.71,0-23.58-.07-47.16-.03-70.74-.08-2.26,0-4.63.58-6.75-.78-.31-5.52,3.96-5.13,7.27-5.23,9.95-.27,19.92-.11,29.88-.1,20.42.02,40.85-.07,61.27.02,7.2.24,14.5-1.19,21.58,1.21,3.58,2.87,2.25,6.48,1.29,9.89-4.83,17.16-6.67,34.2,1.23,51.05,1.01,2.15,1.46,4.41-.25,6.52l.05.24c-3.13.76-6.25.77-9.38,0Z"/><path class="cls-16" d="m990.44,453.09c-.06-1.26.39-3.04-.27-3.7-3.21-3.21-3.86-7.47-4.83-11.46-1.73-7.14-4.81-14.32-1.09-21.76-1.27-9.24,1.88-17.69,4.6-26.23.3-.93.05-2.03.06-3.05,4.44-3.71,9.4-2.42,14.32-1.52,1.37,1.22,2.74,1.18,4.11-.06,14.42-1.73,28.85-.96,43.28-.49,1.52.27,3,.84,4.59.76,1.12-.1,2.23-.04,3.32.25,1.44.52,2.74,1.25,3.62,2.56.65,1.49.67,2.96-.21,4.38-.58.55-1.28.85-2.07.91-2.77-.42-5.42.24-8.07.93-14.37,1.06-28.76.26-43.14.49-9.84.15-12.27,1.62-14.67,11.08-2.61,10.27-3.95,20.59-.08,31.07,2.27,6.13,5.72,9.15,12.46,9.02,12.58-.24,25.17-.14,37.76-.04.86-.03,1.73.02,2.59.11,1.3.05,2.57.25,3.81.64.82.28,1.53.75,2.13,1.37.91,1.66.74,3.23-.41,4.71-18.49.08-36.98.17-55.47.25-.63.31-1.26.3-1.9,0-1.48-.08-2.96-.15-4.44-.23Z"/><path class="cls-2" d="m882.5,431.55c3.34,1.48,6.67,2.96,10.62,4.71,3.26-2.36,6.89-4.98,10.9-7.88,3.06,0,6.63,0,10.21,0,4.49,0,7.63,2.32,9.81,6.01,2.96,4.98,2.29,7.41-2.98,10.07-3.97,2-6.97,4.94-9.49,8.48-.6,1.24-2.22.68-2.96,1.67-5.17,3.46-10.36,6.87-16.81,2.87.16-4.01,3.91-4.12,6.26-5.72,4.5-3.07,10.24-4.52,13.33-9.9-2.55-3.87-5.1-2.77-7.63-.52-2.86,2.55-5.36,5.48-8.24,8.01-2.05,1.81-4.04,4.2-7.32,2.37-2.25-3.24.36-6.36.28-10.11-3.02,1.62-2.29,5.76-5.63,7.05-4.11-1.91-6.49-5.76-8.96-9.55.18-5.59,4.51-6.44,8.62-7.56Z"/><path class="cls-22" d="m1255.93,443.74c0-2,0-3.99,0-5.99,3.07-5.94-.56-13.26,3.91-18.91,8.39,3.16,10.7-5.95,16.43-8.17,3.4.97,4.09,4.15,5.5,6.74,1.11,3.91,3.31,7.57,2.86,11.86-.97,2.88-3.57,2.74-6.03,3.03,2.38,1.8,3.57,4.03,3.57,6.86,0,1.53,0,3.07,0,4.6-3.29,1.76-6.5,3.76-10.51,3.16-.74-.11-1.86.2-2.2-.19-3.79-4.42-8.91-2.54-13.53-2.99Z"/><path class="cls-16" d="m1082.92,408.41c1.21,7.29-1.19,14.31-1.59,21.48.22,1.71.05,3.33-1.05,4.75.02.99.05,1.98.07,2.98.72,3.17.2,6.38.35,9.57-.02,1.98-.26,3.92-1.33,5.65-.26,1.09-.04,2.34-1.04,3.19l-.73.08-.72-.13c-2.29-2.64-2.49-6.14-3.82-9.18.52-9.05.27-18.12-.05-27.29-4.09,9.75-11.76,17.91-12.22,29.15-.67,1.8-2,2.36-3.81,2.07-2.15-.76-3.4-2.39-4.31-4.38.52-12.08,4.15-23.4,8.69-34.46.87-2.12,2.33-3.96,4.62-4.87,5.69-.09,11.51-1.63,16.95,1.39Z"/><path class="cls-29" d="m888.6,451.5c1.5-.75,3.3-1.19,4.46-2.29,4.46-4.22,8.71-8.66,13.38-13.36,1.1.58,2.25,1.74,3.13,1.56,3.3-.67,4.49,2.23,4.53,3.77.05,1.78-1.61,4.19-3.23,5.32-3.63,2.53-7.71,4.4-11.59,6.59-2.52,1.43-5,2.93-7.49,4.4-5.1,5.79-11.78,6.89-19.45,6.31-1-1.3-2.21-2.85-3.53-4.56-2.94,0-6.02.11-9.08-.03-2.81-.13-5.6-.96-8.41-.07-3.19-1.49-10.09-.95-4.09-7.48,6.21-1.98,12.63-.99,18.81-.46,7.56.66,15.02,1.14,22.55.29Z"/><path class="cls-18" d="m1078.43,453.06c.37-1.69-1.15-4.1,1.85-4.77.33-.64.78-.71,1.34-.31,2.52.07,5.04.13,7.56.2.54-.29,1.09-.29,1.63.01,8.21.01,16.41.03,24.62.04.54-.34,1.08-.34,1.62,0,1,0,2,0,3,.01,2.57.09,5.15.18,7.72.27,1.15,1.54,1.07,3.09.05,4.65-12.81.05-25.62.09-38.44.14-.62.32-1.23.31-1.83-.04-.93.02-1.86.05-2.78.07-.63.29-1.27.29-1.92.04-.88.02-1.76.04-2.63.06-.72.46-1.32.37-1.79-.37Z"/><path class="cls-16" d="m828.18,459.34c-7.18-.57-14.36-1.14-21.54-1.7.85-5,5.68-4.31,8.78-6.07.57-.33,1.47-.09,2.21-.12,5.6-.01,11.21-.02,16.81-.04.43.57.44,1.15.04,1.74-3.86.27-5.95,2.34-6.3,6.19Z"/><path class="cls-18" d="m1073.72,446.88c4.91,1.69,2.62,5.88,3.15,9.1-4.54-1.08-9.1-1.83-13.79-1.23-2.42-1.15-5.89-.9-6.29-4.73,1.28-.09,2.88.44,3.16-1.61,4.3-3.1,8.91-3.43,13.77-1.52Z"/><path class="cls-2" d="m834.48,453.15c-.01-.58-.02-1.16-.04-1.74,1.14-3.01,2.29-6.03,3.43-9.04,1.46-1.6,3.18-1.67,5.06-.87,2.07,2.55,3.04,5.45,2.81,8.75-1.81,2.45-2.34,5.77-5.09,7.59-2.55-.9-5.98-.66-6.17-4.68Z"/><path class="cls-9" d="m1056.79,450.01c1.17.52,2.35,1.49,3.5,1.46,2.56-.07,2.7,1.48,2.8,3.27-.1.75-.21,1.5-.34,2.42-3.1,1.05-5.77,1.2-7.58-2.4-.42-.84-1.91-1.14-2.91-1.69-.08-1.62-.16-3.25-.24-4.87-.38-.49-.38-1-.05-1.52.52-.33,1.02-.29,1.5.1,1.11,1.08,2.21,2.15,3.32,3.23Z"/><path class="cls-12" d="m840.64,457.83c.62-2.31,1.09-4.68,1.95-6.9.21-.54,1.66-.61,2.55-.89,1.54.39,2.35,1.26,1.99,2.93-.55.85-1.1,1.7-1.8,2.78,2.01,1.14,4,2.27,6,3.41-.97.04-2.15-.26-2.87.18-3.16,1.95-5.63,1.2-7.82-1.5Z"/><path class="cls-3" d="m981.11,453.33c3.13,0,6.25,0,9.38,0-3.71,1.78-5.71,1.78-9.38,0Z"/><path class="cls-22" d="m1127.82,453.17l-.05-4.65c2.96,1.48,1.73,3.57.83,5.61-.19-.09-.43-.14-.54-.29-.14-.18-.16-.45-.23-.67Z"/><path class="cls-3" d="m908.6,454.62c.99-.56,1.98-1.11,2.96-1.67.61.51,1.21,1.02,1.82,1.54-1.6.04-3.19.09-4.79.13Z"/><path class="cls-3" d="m927.08,453.32h4.76c-1.59,1.99-3.17,2-4.76,0Z"/><path class="cls-22" d="m1078.43,453.06c.6.12,1.2.25,1.79.37-.63.86-1.26,1.73-1.9,2.59.03-.99.07-1.97.1-2.96Z"/><path class="cls-3" d="m916.14,454.42c.6-.37,1.21-.74,1.81-1.11-.6.37-1.21.74-1.81,1.11Z"/><path class="cls-22" d="m994.88,453.32c.63,0,1.27,0,1.9,0-.63,1.44-1.26,1.45-1.9,0Z"/><path class="cls-22" d="m1082.86,453.38c.64-.01,1.28-.03,1.92-.04-.61,1.42-1.25,1.46-1.92.04Z"/><path class="cls-22" d="m1087.56,453.27c.61.01,1.22.03,1.83.04-.64,1.52-1.25,1.46-1.83-.04Z"/><path class="cls-1" d="m823.6,263.29c-1.68,5.38-3,10.71,3.17,15.64,4.72-.35,10.41,0,15.64-1.39,4.83-1.28,9.16-4.43,13.61-6.7,2.15,2.27,4.17,4.39,6.18,6.51,0,1.94,0,3.89,0,5.83-2.45,2.57-5.69,1.88-8.69,2.03-2.82.14-5.68.05-8.23,1.5-2.45,1.39-4.04,3.38-2.99,6.31.91,2.52,3.15,3.21,5.64,3.03,2.61-.19,4.92-1.33,7.29-2.32,2.21-.92,4.27-3.27,7-1.13.03,3.08.29,6.17.04,9.22-.64,7.85,2.34,13.51,9.52,16.92.6.28.99,1.01,1.48,1.53-.62.74-1.39,1.27-2.29,1.6-9.68.71-19.37,1.37-29.01-.4-2.21-1.38-2.4-3.2-1.14-5.33.27-1.45,4.52-1.93.99-4.29-6.62-.5-13.21-.03-19.79-.27-2.97-.11-6.22.34-8.13-2.87,4.24-12.31,4.16-24.84,1.89-37.47-1.58-2.53-5.14-4.01-4.21-7.88,4.02-.03,8.04-.06,12.06-.08Z"/><path class="cls-1" d="m745.06,218.32c4.6-5.05,4.31-11.81,6.23-17.8.27-.85.9-1.59,1.37-2.37,5.19,4.9,10.22,9.9,16.65,13.4,1.89,1.03,2.43,4.55,3.59,6.93-.54.09-1.08.19-1.62.28-.54.24-1.08.25-1.62.04-7.18,0-14.36,0-21.54.01-1.11.39-2.19.64-3.05-.48Z"/><path class="cls-11" d="m811.54,263.37c1.55,1.93,3.1,3.87,4.65,5.8-.21.43-.42.86-.62,1.28-.68.73-1.53,1.08-2.53,1.04-15.53-5.15-31.58-2.02-47.38-2.91-7.64-.43-15.41,1.23-22.91-1.43-1.34-.22-2.82.14-3.95-.95.02-.98.05-1.95.07-2.93,21.19-.03,42.37-.09,63.56-.08,3.04,0,6.06.98,9.11.17Z"/><path class="cls-10" d="m745.06,218.32c1.02.16,2.04.32,3.05.48-1.05.39-2.11.78-3.16,1.17.04-.55.07-1.1.11-1.65Z"/><path class="cls-10" d="m769.65,218.79c.54-.01,1.08-.02,1.62-.04-.51,1.42-1.05,1.46-1.62.04Z"/><path class="cls-9" d="m1280.53,417.49c-.96-1.34-1.89-2.69-2.87-4.01-.53-.72-1.14-1.39-1.71-2.08-1.97-1.96-1.85-4.42-1.68-6.89,1.12-6.25,2.49-12.42,5.86-17.93.58-1.12,1.11-2.28,1.73-3.39.25-.54.44-1.1.59-1.68l-1.95-5.58c1.05-2.95,3.62-4.02,6.02-2.98,3.49,1.51,6.44,1.75,9.87-.04,1.36-.71,3.41-.12,5.52-.12.24,1.25.42,2.18.6,3.12,1.5,1.88,3.17,3.72,1.55,6.36-.15.39-.27.79-.35,1.21-10.91,1.83-22.53,17.21-21.67,28.71.24,1.98.26,3.9-1.5,5.31Z"/><path class="cls-5" d="m1304.05,382.26c-.52-2.12-1.03-4.24-1.55-6.36,8.23,2.78,16.69,1.3,25.07,1.27.87,0,1.73-.87,2.59-1.33,3.02-2.34,6.04-2.32,9.06,0h19.84v5.93c-2.06.13-4,.26-5.95.39-2.53,2.26-5.07,1.86-7.62.03-13.81.03-27.63.06-41.44.09Z"/><path class="cls-30" d="m1339.21,375.83h-9.06c0-4.83.09-4.97,4.42-6.31,1.39.16,2.78.32,4.64.53v5.78Z"/><path class="cls-4" d="m1029.02,169.03c-3.59-.07-7.18-.13-10.77-.2-.54-.41-1.09-.41-1.63,0-2.04,0-4.07,0-6.11,0-2.08-.92-4.15-.92-6.23,0h-6.11c-1.95-1.35-4.46.19-6.4-1.24-.89-.34-2.44-.52-2.56-1.04-1.28-5.52-3.72-10.78-3.42-16.66.25-4.84.05-9.71.01-14.56-.03-4.26-.2-8.53,1.49-12.57-1.71-3.42.43-4.24,3.15-4.67l3.16,1.56c.5.65.78,1.39.85,2.21-4.02,12.87-5.6,25.75.04,38.6,1.01,1.72,2.68,1.99,4.47,1.95,1.14-.04,2.27-.05,3.4-.04,2.86.02,5.76-.13,8.19,1.8,2.02,0,4.04.01,6.05.02.54-.33,1.09-.33,1.64,0,3.57,0,7.15.01,10.72.02,1.05-.63,2.1-.63,3.16,0,1.54.05,3.08.1,4.62.15.46.43.72.96.79,1.58-.08.62-.35,1.14-.83,1.55-.5.01-1,.02-1.5.04-.52.5-1.05.51-1.59.03-1,.02-2,.04-3,.06-.56.42-1.1.86-1.62,1.32l.02.09Z"/><path class="cls-9" d="m925.72,133.72c1.46.49,2.93.99,4.39,1.48.35,1.26,1.44,2,.56,3.92-1.42,3.09-1.7,6.71-2.61,10.81-3.98,1.13-7.46,5.86-13.78,4.59,2.29-2.81,4.33-4.89,5.84-7.31,1.15-1.85,2.47-4.22,2.22-6.17-.45-3.47,2.1-4.98,3.38-7.32Z"/><path class="cls-9" d="m944.22,131.83c.39.3,1.1.6,1.11.9.02,4.35,1.29,8.33,4,12.26-2.65,3.98-5.22,7.84-8.51,12.78-.6-1.27-1.34-2.15-1.14-2.53,2.95-5.42.93-10.7-.28-16.01-.44-1.91-.98-3.8-1.48-5.69,1.44-3,3.62-3.28,6.3-1.72Z"/><path class="cls-3" d="m944.22,131.83c-2.1.57-4.2,1.15-6.3,1.72-.51-1.02-1.02-2.04-1.53-3.06.33-1.65.59-3.33,1.02-4.96.91-3.46,1.9-6.9,2.89-10.44h2.33c2.28,5.42,1.23,11.15,1.59,16.74Z"/><path class="cls-9" d="m990.47,118.1c0,2.26-4.67,1.38-3.15,4.67-2.31.76-4.62,1.51-7.41,2.43-.55-2.68-1.18-5.68-1.8-8.69,2.24-3.27,5.06-4.89,9.06-3.27,1.1,1.62,2.2,3.24,3.3,4.86Z"/><path class="cls-13" d="m987.17,113.25c-3.02,1.09-6.04,2.18-9.06,3.27-.02-.55-.04-1.1-.05-1.65-.07-3.24,2.22-4.69,4.62-6.05,1.79-1.52,3.86-2.01,6.16-1.67,1.69.51,3.53.88,3.27,3.31-.69.47-1.35,1-2.08,1.4-.92.51-1.9.93-2.86,1.39Z"/><path class="cls-5" d="m991.79,167.61c2.13.41,4.72-1.53,6.4,1.23-2.16-.02-4.31-.04-6.47-.06.11-.39.14-.78.07-1.18Z"/><path class="cls-25" d="m741.87,266.51c20.12-.06,40.24-.1,60.35-.19,4.72-.02,8.63,1.85,12.17,4.77,1.52.76,2.32,2.07,2.85,3.61.16.77.24,1.55.26,2.34.07,4.67.02,9.34.03,14,0,1.48,0,2.97-.04,4.45-.01.71-.08,1.43-.17,2.14-.16.68-.39,1.34-.69,1.98-1.22,1.71-1.41,3.83-2.28,5.69-2.34,2.46-5.37,3-8.55,3.15-4.26.07-8.55-.13-12.67,1.3-15.64.39-31.29,1.06-46.92-.33-1.45-.58-2.46-1.56-2.84-3.12,2.17-8.87,1.52-17.91,1.62-26.91.05-4.15-.77-8.05-3.1-11.56-.49-.28-.66-.57-.5-.87.16-.3.31-.45.47-.45Z"/><path class="cls-27" d="m697.21,320.46c.51-1.06,1.03-2.13,1.53-3.16-.4-2.42-4.13-3.21-2.9-6.29.77-.78,1.68-1.27,2.78-1.37,1.07-.08,2.14-.09,3.22-.09.74,0,1.47,0,2.21,0,1.14,0,2.28-.02,3.43-.03.8.01,1.6.02,2.4.02,7.07-.02,14.12.06,21.18-.05,1.29-.05,2.48-.6,3.74-.82,1.28.17,2.66.17,3.34,1.59.61,1.46.75,3.02.32,4.49-4.96,17.26-5.45,34.51,0,51.77.46,1.47.23,3.03-.47,4.46-1.87,2.31-4.53,2.17-7.1,2.31-1.64.06-3.27-.03-4.91-.14-.8-.03-1.6-.15-2.38-.33-.78-.18-1.51-.5-2.19-.92-.93-.73-1.61-1.64-1.83-2.83,1.05-5.91,3.1-11.94-3.05-16.66-1.13-.87-.71-2.84-.47-4.39q1.33-8.66-7.53-11.04c-2.65-1.13-4.79-3.08-7.31-4.42-1.6-.91-3.42-1.27-5.05-2.1-4.01-3.78-4.81-7.23,1.03-9.99Z"/><path class="cls-21" d="m737.34,371.08c-1.11-4.78-2.25-9.56-3.31-14.35-.53-2.4-1.06-4.81-1.35-7.25-.21-1.76.04-3.57-.07-5.34-.64-10.82.44-21.38,4.58-31.51.35-.87.01-2.02,0-3.03.17-.91,1.15-1.03,1.59-1.68.53-.02,1.07-.03,1.6-.05,3.23,2.15,6.89,1.61,10.43,1.63,19.2.09,38.4.14,57.59-.61,12.22,2.75,24.67.57,36.96,1.79.62,1.33,1.25,2.66,2.13,4.53-2.38.32-3.79.51-5.2.7-3.97,2.39-8.39,2.11-12.75,2.11-24.93.02-49.86-.03-74.79.03-10.29.02-12.08,1.3-13.87,11.4-1.89,10.68-2.8,21.44,1.89,31.77.89,1.52,2.19,2.47,3.96,2.78,27.81.64,55.6-.05,83.38.28,1.47.09,2.93.26,4.39.46,1.5.34,2.85.93,3.73,2.28,1.1,6.42-3.6,5.96-7.56,6.39-27.73.07-55.47.06-83.2-.01-3.49,0-7.3.82-10.13-2.31Z"/><path class="cls-11" d="m808.57,310.9h-67.96c-.09-1.14-.16-2.09-.24-3.03.45-.06.9-.15,1.33-.29,1.12-.38,2.25-.42,3.37,0,16.42.02,32.84.04,49.25.05,4.06-1.3,8.43.67,12.44-1.19,2.95.1,5.57-.63,7.5-3.05.9-1.47.74-3.3,1.68-4.75h0c.41-.28.58-.6.49-.95-.09-.36-.2-.54-.33-.54,0-1.55,0-3.09,0-4.64,1.09-5.66,1.12-11.31-.02-16.96-.07-.48-.12-.96-.16-1.44-.92-1.6-.99-3.18.07-4.75,0,0,.19-.21.19-.21.75.12,1.5.25,2.63.44v32.97c-1.26,1.48-2.88,3.39-4.5,5.3-1.27,2.25-3.95,1.8-5.75,3.01Z"/><path class="cls-29" d="m697.21,320.46c-1.02,1.34-2.04,2.68-3.47,4.54,1.07,1.42,2.27,3.03,3.48,4.63.89,3.65-.87,6.22-3.46,8.45-3.13,1.02-5.71.36-7.56-2.5.34-1.14.68-2.28,1.22-4.05-2.25-2.56-5.65-5.22-5.63-9.74.93-.18,2.18-.04,2.73-.59,4.06-4.08,8.34-2.74,12.69-.75Z"/><path class="cls-10" d="m738.78,307.92c-.53.56-1.06,1.12-1.59,1.68-.96,0-1.92.01-2.88.02-.63.37-1.15.88-1.69,1.36-8.22,0-16.44.02-24.66.02-.51-.5-1.03-.53-1.56-.02-1.02.01-2.05.03-3.07.04-.52-.53-1.05-.54-1.58-.02-1.02,0-2.04,0-3.06,0-.83-.98-2.36-.45-3.18-1.46-1.03-.34-2.06-.67-3.1-1.01.06-.46.12-.92.19-1.39,4.53.19,9.07.38,13.6.58.65-.3,1.29-.3,1.94,0,8.11,0,16.21.01,24.32.02,1.15-.59,2.31-.57,3.47-.05.95.08,1.89.15,2.84.23Z"/><path class="cls-3" d="m683.11,309.33c-.52-.53-1.05-1.06-1.57-1.59,2.02-2.48,4.1-1.43,6.36-.43-.79,3.44-3.08,1.93-4.79,2.03Z"/><path class="cls-3" d="m677.26,307.73c-2.69,0-5.39.02-8.08.02,2.69-2.23,5.38-2.15,8.08-.02Z"/><path class="cls-13" d="m741.87,266.51c.03.44.04.88.03,1.32-1.53-.44-3.07-.87-4.6-1.31.49-.16.99-.27,1.5-.32,1.02.1,2.05.2,3.07.3Z"/><path class="cls-29" d="m745.08,307.59c-1.12,0-2.25,0-3.37,0,.55-.43,1.11-.85,1.66-1.28l1.7,1.29Z"/><path class="cls-21" d="m695.52,309.55c1.06.49,2.12.97,3.18,1.46-.95,0-1.9,0-2.86.01-.16-.48-.26-.97-.32-1.47Z"/><path class="cls-3" d="m735.94,307.69c-1.16.02-2.32.03-3.47.05,1.13-1.86,2.29-1.88,3.47-.05Z"/><path class="cls-3" d="m708.14,307.72c-.65,0-1.29,0-1.94,0,.64-1.38,1.29-1.37,1.94,0Z"/><path class="cls-24" d="m721.88,371.23c.51.04,1.02.1,1.52.2.51.44,1.02.44,1.52-.02,1.56,0,3.11.01,4.67.02,5.57,1.32,11.22.56,16.83.58,27.71.1,55.42.05,83.12.04,6,.75,7.46,3.95,5.01,9.26-.55,1.11-1.64,1.95-1.79,3.49,2.88,3.74,9.49-.96,11.54,4.84-3.29,6.25-4.96,13.29-9.36,18.99-5.67-1.13-11.36-2.14-17.12-.51-3.39-.57-4.46-3.83-6.82-6.03.31,4.34.75,8.31,4.5,10.92.52.46.97,1,1.34,1.59.88,1.74,1.09,3.87,2.94,5.05,1.63,1.15,3.37,2.14,4.79,3.57,1.83,2.16,4.58,2.62,6.96,3.77.61.35,1.09.83,1.46,1.42-1.28,1.02-2.44,2.33-3.89,2.97-1.07.48-2.53.08-3.82.08-34.97,0-69.94-.02-104.92-.03-1.81-.56-2.63-1.93-3.01-3.67-.26-1.71-.02-3.35.62-4.95,5.59-12.27,3.28-25.05,2.32-37.72-.21-2.78-1.36-5.45-1.64-8.26-.12-1.2-.06-2.4.18-3.58.18-.77.53-1.47,1.03-2.1.7-.59,1.38-.57,2.05.07Z"/><path class="cls-2" d="m718.85,423.73c-.07,1.52-.15,3.05-.22,4.57-.83,2.05-2.21,3.26-4.56,2.96-1.97,1.78-3.99,1.87-6.06.16-1.49-1.4-3.15-2.6-4.48-4.18-1.83-1.58-2.64-4.12-5.06-5.28-2.54,1.11-1.88,3.68-2.52,5.62-.17,1.5-.83,2.77-1.76,3.93-.08.97-.15,1.93-.23,2.9-2.09,2.47-4.42,3.95-7.61,1.83-3.1-.05-4.76-1.57-4.82-4.72.46-1.62.92-3.24,1.39-4.86,0-.92,0-1.84,0-2.76-.29-.66-.65-1.26-1.09-1.83-2.23-12.12-1.55-24.37-1.69-36.58-.04-3.8-.18-7.58,1.81-11.03,9.29-4.82,17.29-1.4,25,3.89,2.46,6.27,2.32,13.01,2.82,19.53.52,6.79,1.97,13.05,5.27,18.92,1.03,2.43,2.81,4.47,3.8,6.93Z"/><path class="cls-21" d="m844.1,442.75c-2.08-.13-4.16-.26-6.24-.39l-1.85-9.37c.79-.76,1.85-1.16,2.79-.78,6.31,2.53,9.59-.47,11.45-6.14.33-.59.78-1.08,1.3-1.51,1.4-.82,2.82-1.6,4.15-2.55.63-.28,1.28-.32,1.94-.16,2.73,1.26,3.57,4.02,5.03,6.3,1.05,2.79,4.99,4.65,2.77,8.5-5.77,4.41-12.83,4.02-19.45,5.24-.58.39-1.22.67-1.9.86Z"/><path class="cls-29" d="m851.63,425.28c.07,5.35-2.45,8.91-7.42,10.65-2.74-.98-5.47-1.96-8.2-2.94l.08.08c-.44-.51-.93-.99-1.44-1.43-.56-1.08-1.12-2.15-1.68-3.23-.5-.02-1-.05-1.51-.07-2.05-2.43-5.66-2.22-7.76-4.56l-4.61-3.12c-1.2-1.32-1.4-2.77-.55-4.36,6.37-2.15,10.72,2.61,15.89,4.62,4.42,5.22,9.65,4.47,15.12,2.05,1.09.42,1.79,1.19,2.08,2.32Z"/><path class="cls-29" d="m686.35,436.24c2.54-.61,5.07-1.22,7.61-1.83,2.6,4.6-.82,8.97.19,13.75h-5.34c-3.35-3.24-2.41-7.69-2.46-11.92Z"/><path class="cls-29" d="m714.06,431.27c1.52-.99,3.04-1.98,4.56-2.96.57,1.05,1.14,2.09,1.72,3.14,1.03,2.56,4.26,4.26,3.03,7.71-3.55,5.67-4.31-.08-6.13-1.49-1.9.06-3.41-.25-3.15-2.75.13-1.2-.02-2.43-.04-3.65Z"/><path class="cls-23" d="m694.19,431.52c.02-1.6.04-3.2.06-4.79,3.56-2.83,7.08-1.98,10.59.11,2.28.69,3.23,2.29,3.15,4.6-4.6.03-9.21.06-13.81.09Z"/><path class="cls-18" d="m717.25,437.66c.97.69,2.02,1.29,2.88,2.09,1.44,1.35,2.49,1.36,3.25-.6,1.05.29,2.11.58,4.47,1.24-3.77,3.28-6.65,5.78-10.45,9.08-.58-2.47-1.23-3.93-1.18-5.37.08-2.16.66-4.3,1.03-6.45Z"/><path class="cls-21" d="m834.65,431.64c.48.48.96.96,1.44,1.43-.48-.48-.96-.96-1.44-1.43Z"/><path class="cls-29" d="m905.52,172.28c21.67-.05,43.34-.12,65.01-.09.93,0,1.85.99,2.78,1.52-21.05-.02-42.1-.01-63.15-.11-1.56,0-3.7,1.19-4.63-1.32Z"/><path class="cls-29" d="m890.08,172.28c.52,0,1.05,0,1.57,0-.26.4-.52.81-.79,1.21-.26-.4-.52-.81-.79-1.21Z"/><path class="cls-10" d="m689.48,220.01c1.52,0,3.04,0,4.55,0,.07.86.13,1.73.2,2.59-1.66.01-3.32.02-4.98.03.07-.88.15-1.75.22-2.63Z"/><path class="cls-20" d="m706.37,379.06c-7.71-3.79-15.8-5.58-24.41-4.6l-3.33-1.64c-.04-.53-.08-1.07-.12-1.6.1-.75.13-1.52.33-2.23.13-.46.53-.85,1.06-1.67-9.76-2.2-12.49-10.32-15-18.3-.63-1.99.93-4.67,1.48-7.03,1.98-.96,3.53-.03,5.04,1.11,1.35,1.03,1.43,3.33,3.57,3.61,1.81-.99,1.61-3.06,2.48-4.54.55-1.39,1.58-2.34,2.78-3.15l5.95-3.43c2.56.59,5.11,1.18,7.67,1.77,3.21,2.69,1.42,6.68,2.68,10.09,1.14-5.72-1.95-12.77,5.45-16.17,2.01,1.52,4.02,3.05,6.03,4.57,8.17,6.78,11.35,23.06,6.28,32.23-.5.91-.82,1.84-.75,2.88.04.72,0,1.43-.08,2.13-.3,1.75-.47,3.54-1.05,5.22-1.48,4.28-3.74,2.97-6.07.75Z"/><path class="cls-6" d="m612.28,425.29c.5,0,1,0,1.51.01,0,.47,0,.94.02,1.41-.51-.47-1.02-.95-1.53-1.42Z"/><path class="cls-23" d="m681.83,422.08c.36.61.73,1.22,1.09,1.83-.36-.61-.73-1.22-1.09-1.83Z"/><path class="cls-3" d="m670.79,343.49c-1.47-.5-2.94-1.01-4.41-1.51-2.52-4.81-5.04-9.62-7.62-14.54,1.76-2.12,3.11-4.78,6.61-3.83,3.5.96,7.45.63,9.11,5.38,1.25,3.57,3.8,6.69,5.77,10.02-.49.97-.98,1.94-1.47,2.92-2.35,2.15-5.11,2.19-8,1.56Z"/><path class="cls-18" d="m993.61,121.18c-.07-.5-.06-1.01.02-1.51q9.82-4.64,18.37-4.66c-.49,1.07-.97,2.14-1.46,3.21-.68,8.81-.86,17.68-3.02,26.33-.48,1.92-.27,4.01-.37,6.02-1.85,1.69-3.96,1.8-6.21,1.04-6.29-8.11-5.91-17.99-7.17-27.43-.13-.98.19-2.02-.17-3.01Z"/><path class="cls-3" d="m1044.43,209.13c.68-2-1.57-4.71,1.51-6.12,3.18,1.02,6.34,2.08,9.55,2.97.29.08.89-.94,1.35-1.44,2.48.51,3.52-1.56,5.1-2.75,1.31-.98,2.88-1.6,4.66-2.55,1.74,4.11,1.22,7.77.86,11.14-.34,3.18-3.46,5.08-5.39,7.49-3.28,4.09-5.64,1.43-8.45.57-1.05-.32-2-.98-2.99-1.48-2.07-2.61-4.24-5.14-6.2-7.84Z"/><path class="cls-29" d="m1056.76,153.61c.51.46,1.55,1.12,1.46,1.36-1.37,3.65-2.9,7.25-4.43,10.97-2.42,0-4.19.16-5.91-.07-.9-.12-2.43-.91-2.45-1.44-.18-4.55-4.63-7.72-3.95-12.48,5.68-4.86,10.31-.05,15.28,1.66Z"/><path class="cls-12" d="m1056.76,153.61c-1.05.21-2.28.87-3.12.55-2.73-1.05-5.32-2.46-8.09-3.79-.59,1.09-1.05,1.94-1.56,2.88-.83-.43-1.66-.87-2.5-1.3-.45-3.35,0-6.44,2.69-9.09h8.47c4.72,2.04,4.35,6.43,4.12,10.76Z"/><path class="cls-23" d="m1063.03,166.06c.2,2.02-2.2,3.96-.09,6.1.38.38.28,1.57,0,2.22-2.25,5.36-4.55,10.69-6.98,15.97-.17.37-1.41.24-2.15.35,1.05-8.65,2.1-17.3,3.26-26.8,2.44.89,4.2,1.52,5.96,2.16Z"/><path class="cls-23" d="m1036.72,167.49c.04-.53.07-1.05.11-1.58,1.76-1.53,3.78-2,6.04-1.49-.14,5.84,2.35,11.1,3.61,16.63.49,2.15.61,4.39.9,6.59-4.33.27-4.44-4.73-7.52-6.02.9-3.11-1.78-4.52-2.89-6.72-1.01-2-.23-4.91-.24-7.41Z"/><path class="cls-9" d="m1001,150.55l6.15.03c.35,3.75,4.33,6.39,3.24,10.58-2.71,4.29-5.92,2.2-9.09.72-2.67-3.71-2.91-7.48-.31-11.33Z"/><path class="cls-19" d="m1002.76,161.55c2.62,1.28,5.22,2.23,7.64-.39.06,1.01.12,2.01.18,3.02-3.13,0-6.26.02-9.39.03-.55-1.52.39-2.16,1.57-2.66Z"/><path class="cls-19" d="m1042.87,164.42c-2.01.5-4.03.99-6.04,1.49-.02-.52-.04-1.04-.06-1.55,2.18-2.03,4.04-2.01,6.11.06Z"/><path class="cls-19" d="m1032.15,164.21c-1.05,0-2.1,0-3.16,0,1.05-1.92,2.1-1.94,3.16,0Z"/><path class="cls-19" d="m1018.27,164.19c-.55,0-1.09,0-1.64,0,.54-1.55,1.08-1.56,1.64,0Z"/><path class="cls-30" d="m1029.14,264.99c-4.14-.14-8.29-.27-12.43-.41-4.1-1.61-8.51.28-12.62-1.13h-7.94c-8.82-17.12-7.32-29.55,4.52-40.18h26.72c1.24,6.01,2.25,12.09,3.8,18.03,1.66,6.39,3.82,12.64,5.76,18.95,1.23,2.23.05,3.26-1.93,3.9-1.64.16-3.31.13-4.89.74-.33.04-.65.07-.98.1Z"/><path class="cls-30" d="m1044.26,260.26c.07-5.88.34-11.76.13-17.63-.15-4.22-1.24-8.4-1.37-12.62-.14-4.47.85-5.25,5.27-5.38,3.55-.1,7.11-.02,10.63-.02,1.52,6.99.94,13.65-.18,20.96-.74,4.83-1.74,10.08,1.42,14.71.83,1.25.69,2.49-.05,3.72-4.16,3.86-8.92,3.09-13.76,1.79-2.02-1.34-3.39-2.94-2.08-5.54Z"/><path class="cls-12" d="m1044.26,260.26c.58,1.5,1.16,2.99,1.73,4.49.13,1.31-.48,2.27-1.43,3.08-.1.24-.15.66-.29.69-5.66,1.17-11.31,1.81-16.82-.71.56-.94,1.12-1.88,1.68-2.82,0,0-.11-.25-.11-.25,1.36-1.08,2.94-1.48,4.65-1.45,1.98-.06,3.24-.88,3.26-3.04h7.32Z"/><path class="cls-12" d="m1059.82,263.15c.11-.95.22-1.91.33-2.86,1.93-.02,3.85-.05,5.78-.07.15.97.29,1.94.44,2.91.57.86,1.64,1.17,2.24,2.01,1.08,2.15,3.1,3.91,2.81,6.65-3.24,5.07-6,3.67-8.55-.63-.97-1.13-1.94-2.26-2.92-3.39-1.46-1.5-1.09-3.05-.12-4.61Z"/><path class="cls-29" d="m1044.43,209.13c4.96,1.42,5.9,2.6,6.2,7.84-2.79-.02-5.62.22-8.37-.16-1.5-.21-2.86-1.46-4.18-2.18.99-3.86,4.23-3.97,6.34-5.5Z"/><path class="cls-10" d="m1062.77,195.74c-2.34-3.27-1.03-5.6.14-8.14,1.1-2.38,1.66-5.02,2.46-7.54,4.23,2.41,4.86,3.89,2.71,7.82-1.4,2.55-3.25,4.84-5.31,7.86Z"/><path class="cls-10" d="m1031.67,190.48c-4.92-4.09-.79-8.65-.82-13.55q3.48,10.7.82,13.55Z"/><path class="cls-5" d="m1033.62,167.56c.53-.01,1.06-.02,1.59-.03-.35.38-.69.76-1.04,1.14-.19-.37-.37-.74-.56-1.11Z"/><path class="cls-5" d="m1029,168.94c.54-.44,1.08-.88,1.62-1.32-.54.44-1.08.88-1.62,1.32Z"/><path class="cls-28" d="m1070.89,271.11q-3.18-3.46-3.31-6.34c1-.9,2.06-.86,3.16-.2,2.54,0,5.08-.02,7.62-.03.56-.33,1.11-.34,1.65.03,1,0,1.99,0,2.99.01.55-.38,1.09-.38,1.64,0,1,0,2,0,2.99,0,1.57-.79,3.14-.79,4.72,0,7.69,0,15.37,0,23.06,0,.55-.36,1.1-.37,1.65-.01,2.02,0,4.03,0,6.05,0,.6-.61,1.13-.56,1.59.17,1.09.5,2.18,1.01,3.27,1.51-.11.53-.22,1.07-.33,1.6-3.7,0-7.45-.4-11.07.12-3.56.51-6.98,1.97-10.47,3.02-1.44.71-2.71-.03-4.02-.44-5.79.86-11.6.82-17.42.51-4.6.25-9.18,3.4-13.78.07Z"/><path class="cls-25" d="m1092.36,264.57c-1.57,0-3.14,0-4.72,0,1.57-2.29,3.14-2.31,4.72,0Z"/><path class="cls-25" d="m1070.74,264.57c-1.05.07-2.11.13-3.16.2-.41-.55-.81-1.09-1.22-1.64,1.46.48,2.92.96,4.38,1.44Z"/><path class="cls-25" d="m1124.7,264.72c-.53-.06-1.06-.11-1.59-.17.01-1.46.03-2.91.04-4.37,2.85.71,1.13,2.99,1.55,4.54Z"/><path class="cls-25" d="m1117.07,264.56c-.55,0-1.1,0-1.65.01.54-1.58,1.09-1.62,1.65-.01Z"/><path class="cls-25" d="m1084.65,264.58c-.55,0-1.09,0-1.64,0,.54-1.61,1.09-1.61,1.64,0Z"/><path class="cls-25" d="m1080.01,264.57c-.55-.01-1.1-.02-1.65-.03.58-1.61,1.13-1.52,1.65.03Z"/><path class="cls-29" d="m1280.46,411.46c-.46-1.3-1.63-2.87-1.25-3.85,1.48-3.84,2.58-8.58,5.48-10.92,3.01-2.43,4.2-5.35,5.8-8.29,3.71-6.85,5.68-7.66,13.22-4.93v6.84c-2,1.33-4.16,2.77-6.32,4.21-3.95,3.48-3.93,7.66-2.14,12.15-3.13,6.98-1.31,11.53,5.6,13.99,5.07-.74,10.5,1.81,15.24-1.74,0-.49.06-.97.16-1.44,5.33-1.28,8.53.59,9.17,6.23-4.48,1.2-8.93,2.52-13.45,3.56-6.26,1.43-12.51,3.17-19.05,2.59-6.49-4.55-9.76-11.27-12.45-18.39Z"/><path class="cls-12" d="m1325.41,423.7c-1.86-3.84-5.29-5.35-9.17-6.23,1.41-3.92,2.83-7.84,4.36-12.07,4.85-.15,9.39-.29,13.93-.43.73-.39,1.42-.32,2.07.19-2.11,5.66-4.22,11.33-6.33,16.99-1.62.51-3.24,1.03-4.86,1.54Z"/><path class="cls-1" d="m1345.49,382.18c2.54,0,5.08-.02,7.62-.03,1.93,4.65,6.06,2.5,9.32,3.01-1.08,4.58-5.55,6.87-7.4,11.03-1.03,2.32-3.19,4.14-4.84,6.19.16-4.97.32-9.95.49-15.44-2.5-.12-5.73-.27-10.78-.5,2.84-1.05,4.08-1.51,5.36-1.99.08-.76.15-1.52.23-2.28Z"/><path class="cls-26" d="m1299.21,422.19c-.42.54-.85,1.08-1.73,2.21-2.87-5.2-5.51-9.96-8.4-15.21,3.12.29,5.13.26,5.58-2.52.33-.65.71-.65,1.12-.08l3.48,9.35c.88,2.09,1.47,4.18-.05,6.25Z"/><path class="cls-9" d="m1295.79,406.6l-.56.08h-.56c-2.25-2.76-4.08-5.66-2.77-9.81,1.58-.68,3.53-1.52,5.48-2.36.51,4.16.58,8.27-1.59,12.09Z"/><path class="cls-3" d="m1299.21,422.19c.02-2.08.04-4.16.05-6.25.72.87,1.43,1.75,2.43,2.97h14.38c-.06.94-.13,1.87-.22,3.28h-16.64Z"/><path class="cls-3" d="m1336.6,405.17c-.69-.06-1.38-.13-2.07-.19-.04-1.73.58-3.91-.25-5.09-1.99-2.84.06-4.49,1.16-6.64.71,2.28,1.62,4.42,1.99,6.66.29,1.74,1.4,3.84-.84,5.27Z"/><path class="cls-8" d="m1082.92,408.41c-2.87.05-5.89-.84-8.46,1.25-2.46-2.48-5.7-.78-8.48-1.59-4.52-4.21-5.19-9.58-4.62-15.32-.02-1.5-.04-2.99-.06-4.49-.48-.63-.88-1.3-1.23-2.01-2.31-6.23-2.35-12.27,1.48-18,1.35-2.41,3.07-4.45,5.69-5.58,1.47-.54,2.95-.62,4.44-.08,1.01,1.17,2.05,1.21,3.1.02,1.18-.23,2.3-.04,3.37.48,5.56,3.75,1.1,9.35,2.51,13.21.12,1.69,1.63.12.75.66-.28.17-.44-.03-.48-.6-.23-2.8-.51-5.63.33-8.36.69-2.26,1.5-4.68,4.75-2.87,2.01,3.95,3.2,8.1,3.24,12.56.03,3.01.08,6.02.13,9.03-.56,2.05-1.11,4.1-1.67,6.14-.53,3.08-.8,6.23-1.66,9.21-.65,2.23-2.05,4.24-3.12,6.34Z"/><path class="cls-16" d="m1093.86,355.85c4.38,6.4,4.39,8.12-.42,12.67-1.42-2.02-2.74-4-4.19-5.89-.96-1.25-2.1-2.35-3.17-3.52-.29-.31-.57-.62-.86-.92-1.67-4.4-1.18-9.11-1.91-13.65.6-3.19,2.46-4.28,5.55-3.32,4.16,4.02,1.13,10.5,4.99,14.62Z"/><path class="cls-29" d="m1093.86,355.85c-1.55-1.23-3.1-2.47-4.65-3.7v-10.15c-1.21-1.67-1.4-3.33.11-4.94,1.01,1.48,1.98,2.99,3.06,4.42.93,1.22,2,2.33,3,3.49-2.31,3.37-1.31,7.21-1.52,10.88Z"/><path class="cls-29" d="m1076.87,363.63c-1.03,0-2.05,0-3.08,0-.52.44-1.04.46-1.55-.02-1.51-.03-3.02-.06-4.53-.09-.46-4.15,2.69-4.26,5.41-4.85,4.31,1.18,8.68-1.15,13,.15l-.04.29-.07,4.46c-3.04,1.6-6.09,1.45-9.14.05Z"/><path class="cls-23" d="m1076.87,363.63c3.05-.02,6.1-.03,9.14-.05,0,.52-.01,1.04-.02,1.55-4.02-.1-4.06,3.18-4.4,5.69-.4,2.97-.09,6.03-.76,9.11-1.07-2.1-.83-4.37-.87-6.59-.04-2.3,0-4.6,0-6.93-1.02-.92-2.05-1.86-3.09-2.79Z"/><path class="cls-30" d="m605.69,393.85c-2.49-2.74-4.23-4.66-5.89-6.49,3.96-6.58,3.89-6.64,7.26-8.39,1.4,4.86-.94,9.16-1.37,14.88Z"/><path class="cls-30" d="m1103.14,269.32c.99.55,1.98,1.11,2.98,1.66.71,2.53-1.32,3.64-2.68,5.07-9.18,9.7-18.36,19.4-27.52,29.12-.3.32-.31.91-.45,1.37-.78.47-1.51,1.16-2.36,1.37-4.18,1.01-6.78,3.37-7.14,7.82-.93.36-1.87.39-2.82.11-33.74-.16-67.49-.4-101.22.13-.94.38-1.85.3-2.72-.21-7.6-13.67-7.08-33.58,1.17-43.96,31.13-.16,62.26-.03,93.39-.06,1.54,0,3.09-.15,4.57.48,1.51-.35,3.02-.7,4.53-1.05,1.42.91,2.84,1.82,4.78,3.06.96-.92,2.11-2.01,3.25-3.11,5.08-.59,10.17-1.18,15.25-1.77.24,9.05-6.46,15.22-9.24,23.22,4.64-5.09,8.35-10.99,13.61-15.42,3.81-3.21,6.9-7.67,12.62-7.82Z"/><path class="cls-26" d="m1280.46,411.46c4.15,6.13,8.3,12.26,12.45,18.39l-4.48.2c-1.59,1.06-3.16,1.26-4.66-.16-1.08-4.14-2.15-8.27-3.23-12.41l-.08-6.03Z"/><path class="cls-3" d="m1283.76,429.9c1.55.05,3.11.11,4.66.16q-1.18,2.6-3.74,3.43c-.92,2.09-1.72,3.88-2.51,5.67-1.36-1.93-2.71-3.86-4.3-6.12-.78.27-1.84.64-3.15,1.09v-3.97c3.12-.14,6.21,1.47,9.04-.28Z"/><path class="cls-24" d="m1263.65,300.23c-4.57-1.88-9.76-2.25-13.62-5.97-.77-.74-2.88-.11-5.24-.11,6.39-4.02,11.85-7.45,17.31-10.89,2.15,5.51,1.53,11.26,1.55,16.96Z"/><path class="cls-24" d="m988.97,108.8c-2.1,0-4.2.01-6.3.02.33-1.35.67-2.71,1.09-4.42-.74-.5-1.74-1.18-2.74-1.86-.41-3.56-.82-7.12-1.24-10.68,1.95-1.21,4.87-1.41,4.63-4.88-.03-.38,1.95-.9,3-1.36,1.5,1.09,3,2.17,4.49,3.26,2.19,4.27,2.03,8.91,2.18,13.5-1.46,2.33-3.37,4.31-5.12,6.42Z"/><path class="cls-5" d="m958.17,79.34v-5.08c.57-.36.94-.76,1.38-.86,2.64-.58,5.7-.44,7.84-1.78,3.53-2.22,6.04-1.12,8.81,1.04v9.93c-3.48-.54-6.59-.97-9.67-1.52-2.84-.51-5.65-1.16-8.37-1.72Z"/><path class="cls-10" d="m988.9,60.98c.25,2.14,1.92,1.4,3.15,1.55-.67.52-1.47,1.59-1.98,1.47-1.92-.46-3.75-1.31-5.39-3.02h4.22Z"/><path class="cls-30" d="m676.95,208.76v9.68c-3.67.67-7.26,1.32-10.78,1.96-1.84-1.95-3.32-3.54-4.83-5.1-.34-.36-.85-.57-1.14-.96-1.87-2.51-2.23-8.05-.68-9.95,1.45-1.78,7.26-2.16,9.99-.51,2.51,1.52,4.92,3.22,7.44,4.88Z"/><path class="cls-25" d="m1214.29,293.98c-3.6.62-7.21,1.23-10.81,1.85-1.97-1.61-1.95-3.94-1.89-6.11.08-3.1-1.49-4.44-4.27-4.87-3.08,0-6.16,0-9.24,0q-4.66-3.79-4.36-10.59c1.38-.07,2.83-.14,4.27-.21-.37.87-.75,1.73-1.27,2.94,1.32.55,2.6,1.4,3.97,1.58,3.14.43,6.48-.82,9.41,1.51.53.42,1.91-.05,2.83-.33,2.78-.83,5.53-1.74,8.28-2.67,2.14-.72,3.24-2.22,3.15-4.52.99,1.26,2.28,2.39,2.9,3.81.76,1.74.95,3.72,1.49,6.03-2.96,2.99-5.25,6.71-4.47,11.59Z"/><path class="cls-29" d="m1231.21,289.47c.01-6.18.02-12.36.04-18.54,4.79,4.56,6.15,9.03,4.66,15.11-.17.71,0,1.5-.06,2.25-.05.71-.19,1.41-.29,2.13-1.8.71-3.43,1.47-4.36-.95Z"/><path class="cls-1" d="m604.65,304.77c.39.22.79.45,1.18.67l-.7.72c-.24-.39-.48-.77-.71-1.16l.23-.23Z"/><path class="cls-3" d="m993.56,102.65c-2.03-4.41-2.39-9.03-1.66-13.77h12.53c4.97-2.61,8.49-4.46,12.02-6.31,1.06.04,2.12.09,3.19.13.36,3.26-.97,7.05,3.11,9.15.46.24.17,1.93.23,2.95-4.24,2.53-7.43,6.73-12.54,7.88-3.99-4.99,2.03-7.55,2.98-11.88-2.79-.59-3.97,1.36-5.48,2.93.41,2.94,1.26,5.89,1.12,8.94-.87,2.69-3.11,1.15-4.73,1.52-3.11-3.85-7.36.18-10.77-1.56Z"/><path class="cls-22" d="m1009.07,102.69c-.55-.44-1.45-.78-1.6-1.33-.84-3-1.5-6.05-2.23-9.1,4.26.84,4.91-7.74,10.63-4.67.51,5.13-.16,6.42-5.42,10.02v5.09c-.46,0-.92,0-1.38,0Z"/><path class="cls-29" d="m993.56,102.65c2.97,1.15,2.67-2.47,4.85-3.21,2.21,1.01,5.99.25,5.93,4.77-5.16-.03-8.18,4.11-12.23,6.25-1.05-.56-2.09-1.11-3.14-1.67-.03-4.94.24-5.31,4.59-6.14Z"/><path class="cls-16" d="m1066.26,318.89c-.05-.57-.09-1.13-.14-1.7.41-.57.81-.53,1.21.02,2.76.02,5.53,0,8.29.06,5.98.1,7.16,2.14,4.15,7.13q-2.02,3.35,1.96,6.94c.76,8.58-.86,11.51-7.29,13.19-1.23-.37-2.2-1.11-3.03-2.07-2.48-3.65-4.11-7.61-4.17-12.1.02-2.5-.27-4.97-.82-7.41-.35-1.34.43-2.72-.17-4.05Z"/><path class="cls-24" d="m1067.34,317.2l-.6-.06-.61.04c-35.51-.05-71.02-.1-106.52-.15-.37-.3-.5-.61-.38-.91.12-.31.24-.46.37-.46.51.02,1.03.01,1.54-.02,1.89-1.15,3.99-.69,6-.69,30.45-.03,60.89-.03,91.34,0,2.01,0,4.11-.44,6.01.67.49.02.99.05,1.48.08.46.5.91.99,1.37,1.49Z"/><path class="cls-20" d="m1073.96,343.65c1.22-.08,2.44-.16,3.8-.25,1.33-4.02,2.66-8.04,3.99-12.07,2.52,1.91,5.05,3.82,7.57,5.73-.04,1.65-.07,3.29-.11,4.94-2.3-.16-5.1-1.09-4.62,3.01-.64,1.45-1.67,2.45-3.23,2.86-.74.19-1.49.27-2.26.29-2.62-.46-5.59-.56-5.15-4.52Z"/><path class="cls-1" d="m1342.37,261.65l-1.53-3.16c2.17.25,1.54,1.85,1.53,3.16Z"/><path class="cls-1" d="m1331.54,290.65c-.02,1.38.66,3.08-1.58,3.43.53-1.14,1.06-2.29,1.58-3.43Z"/><path class="cls-25" d="m1177.2,281.77c-3.4.39-6.81.78-10.01,1.14-.89,3.11-1.2,5.03.59,7.18,2.23,2.66,3.51,6.16,5.9,8.62,2.86,2.94,6.45,5.18,9.73,7.72-3.58,0-7.18-.17-10.75.05-5.27.33-9.39-1.45-12.39-5.93,0-6.07-.05-12.2.01-18.34.08-7.5,2.35-9.65,10.04-9.72,1.79-.02,3.58,0,5.38,0,.51.67,1.42,1.32,1.47,2.02.17,2.41.04,4.84.03,7.27Z"/><path class="cls-3" d="m1197.32,284.85c2.16-.18,1.99-5.56,6.16-2.05v13.03c-.99,2.59-3.09.97-4.7,1.23-1.6-2.31-1.11-5.44-3.02-7.63.52-1.53,1.04-3.05,1.56-4.58Z"/><path class="cls-25" d="m1195.76,289.43h4.39c-.54,3.02-.95,5.32-1.37,7.63-2.12-.47-4.22-1.21-6.36-1.35-2.28-.16-3.75-.92-4.26-3.21.7-.83,1.39-1.66,2.59-3.07h5.01Z"/><path class="cls-25" d="m1081.62,447.99c-.41.25-.86.35-1.34.31.03-3.56.05-7.12.08-10.69,2.67,3.18.34,6.98,1.27,10.38Z"/><path class="cls-25" d="m1080.29,434.63c-.1-1.68-1.51-3.65,1.05-4.75,2.08.26,2,1.95,1.57,3.15-.27.75-1.7,1.08-2.61,1.6Z"/><path class="cls-21" d="m1107.77,392.66c1.53-2.04,3.06-2.03,4.59,0-1.53,0-3.06,0-4.59,0Z"/><path class="cls-25" d="m1090.81,448.2c-.54,0-1.08,0-1.63-.01.55-1.5,1.1-1.47,1.63.01Z"/><path class="cls-25" d="m1117.05,448.24c-.54,0-1.08,0-1.62,0,.54-1.55,1.08-1.55,1.62,0Z"/><path class="cls-30" d="m1282.45,385.32c-.67,1.82-1.06,3.84-2.09,5.43-1.92,2.97-3.1,5.97-2.92,9.58.05,1.05-1.03,2.15-1.6,3.23-2.19,2.07-4.23.41-6.29-.27-7.14-2.36-11.01,1.15-9.61,8.72.44,2.36,2.61,4.55.77,7.16-.56,1.62-2.04,3.64-1.53,4.8,1.94,4.5-.82,8.58,0,13.32-1.36.19-2.3.32-3.24.46h-13.09c-3.18-7.23-5.29-14.21-5.48-21.87-.25-10.19.79-19.98,4.49-29.62,1.33-3.45,2.9-4.25,5.99-4.24,8.99.05,17.98.05,26.97-.01,2.54-.02,5.08-.33,7.61-.5l.36.36c.07,1.17.21,2.35-.35,3.46Z"/><path class="cls-5" d="m1004.3,168.85c2.65-1.88,3.56-1.88,6.23,0-2.08,0-4.15,0-6.23,0Z"/><path class="cls-5" d="m1016.63,168.84c.54-1.55,1.08-1.6,1.63,0-.54,0-1.08,0-1.63,0Z"/><path class="cls-26" d="m1067.49,321.92c1.9,2.37,2.02,5.07,1.43,7.89-1.4,3.03-3.48,5.49-6.11,7.51-3.46,2.52-3.98,6.22-4.01,10.08-.03,4.78,0,9.56-.83,14.29-.7,3.99,3.13,4.47,5.01,6.45-.18.97-.09,2.11-.59,2.87-2.33,3.57-3.55,7.04-1.05,11.17.67,1.11.02,3.01-.02,4.55-.96.89-1.94.79-2.95.1-1.03,0-2.06,0-3.1,0-.51.4-1.02.4-1.54.02-15.95,0-31.9-.02-47.86-.02-.51.41-1.03.39-1.54,0-5.14.02-10.28.03-15.41.05-7.21-.06-14.43-.12-21.64-.18-2.39-2.92-.91-5.72.16-8.62,6.11-16.54,4.64-33.07-.31-49.54-.82-2.73-2.12-5.28.19-7.86,10.54-.09,21.08-.27,31.61-.26,21.86.02,43.72.13,65.58.21.95.52,2.33.04,2.98,1.27Z"/><path class="cls-25" d="m959.59,315.67c-.03.46-.03.91,0,1.37-25.78.05-51.55.09-77.33.18-5.28.02-9.46-2.49-13.84-5.74v-3.47c-1.62-2.41.15-5.37-1.27-7.81,0-1.51,0-3.01,0-4.52.83-1.58.81-3.16.01-4.74l1.22-6.03c-.89-1.59-.99-3.16.08-4.72,1.51-3.74,6.24-7.1,10.93-7.71.98-.13,1.98-.1,2.96-.15,20.94-1.37,41.91-.33,62.86-.53,4.78-.05,9.68-1.05,14.38.79-.25,3.43.84,7.2-2.69,9.79-.43.32-.42,1.39-.42,2.12-.03,6.37-.11,12.74.05,19.1.03,1.39,1.07,2.72,1.42,4.13.64,2.62,1.1,5.29,1.63,7.94Z"/><path class="cls-11" d="m967.31,320.7c.16,2.2-.73,4.55,1.34,6.44,3.07,2.8,3.24,6.52,3.34,10.41.1,3.7,1.15,7.36,1.4,11.06.26,3.82.06,7.67.06,11.51,0,8.25-.96,11.39-5.82,21.35-.71,1.46-.27,3.48-.36,5.25h-98.52c-.08,1.23-.14,2.16-.21,3.09.53.35.7.69.52,1.02-.18.33-.36.5-.54.5l-3.12,3.04c-2.03,2.35-4.52,2.93-7.34,2.01-2.7-2.36-1.88-5.68-2.67-8.5-1.13-4.03-3.11-4.14-5.75-1.25-1.2,1.22-2.42,2.42-3.86,3.38-.67.27-1.32.2-1.94-.17-2.18-3.28-5.44-1.04-8.16-1.52-2.62-.46-5.79.94-7.31-3.21.27-2.18,2.13-3.05,4.61-3.16,5.85-2.11,11.6-4.19,16.89-7.75,5.05-3.39,10.14-1.35,14.37,2.65.58.5,1.14,1.03,1.72,1.54.32.21.62.45.94.66,1.47.84,3.08.73,4.69.75,27.03-.19,54.04-.16,81.03-.08,3.03.26,5.87.1,7.14-3.4,5.02-10.75,4.42-22.13,2.95-33.31-1.41-10.77-5.72-14.04-16.6-14.14-21.81-.2-43.63-.04-65.45-.08-4.1,0-8.22.14-12.29-.66-8.84-2.08-17.82-.58-26.72-1.02-3.3-.16-6.65.31-9.9-.73-2.74-1.53-3.52-3.31-.69-5.53,3.29-1.44,6.58-1.22,9.86.03,10.24.13,20.49.98,30.71-.43.54-.05,1.08-.1,1.62-.15.46.05.92.09,1.38.15,2.03,1.07,4.08,1.02,6.14.08,24.21.02,48.43.05,72.64.07,1,.66,2.01.63,3.04.07,3.62.02,7.24.03,10.86.05Z"/><path class="cls-22" d="m862.22,292.6c-4.2,1.87-8.39,3.75-12.6,5.6-5.02,2.21-11.44-2.16-10.4-8.56.47-2.93,5.25-6.19,9.29-6.35,4.56-.18,9.14-.08,13.71-.11,0,3.14,0,6.28.01,9.41Z"/><path class="cls-5" d="m959.61,272.58c-22.94-.04-45.89-.08-68.83-.13-2.8,0-5.6-.08-8.41-.13,1.48-2.99,4.17-1.3,6.16-1.3,35.74-.13,71.49-.1,107.24-.1,19.29,0,38.57-.03,57.86.05,1.57,0,3.13.8,4.7,1.22-18.76.08-37.53.15-56.29.22-14.14.05-28.28.1-42.42.15Z"/><path class="cls-28" d="m1059.82,263.15c.04,1.54.08,3.07.12,4.61-.08.24-.11.66-.25.7-5.11,1.44-10.18,1.81-15.13-.63-.03-1.26-.57-2.76,1.43-3.08,4.62-.46,9.48,1.2,13.83-1.6Z"/><path class="cls-23" d="m867.16,300.2c2.7,2.23.74,5.23,1.27,7.81-2.98-2.19-.93-5.19-1.27-7.81Z"/><path class="cls-29" d="m880.77,320.5c-2.64,1.87-3.59,1.85-6.14-.08,2.05.03,4.1.05,6.14.08Z"/><path class="cls-14" d="m1067.49,321.92c-.99-.42-1.98-.85-2.98-1.27.58-.59,1.17-1.17,1.75-1.76.41,1.01.82,2.02,1.22,3.03Z"/><path class="cls-23" d="m868.48,280.19c-.03,1.57-.05,3.15-.08,4.72-2.33-1.61-2.58-3.19.08-4.72Z"/><path class="cls-23" d="m867.17,290.94c2.02,1.58,2.01,3.16-.01,4.74,0-1.58,0-3.16.01-4.74Z"/><path class="cls-14" d="m956.45,320.65c-1.06,1.79-2.07,1.79-3.04-.07,1.01.02,2.03.05,3.04.07Z"/><path class="cls-5" d="m991.97,267.9c.52,0,1.03-.01,1.55-.02-.34.38-.68.75-1.02,1.13-.18-.37-.35-.74-.53-1.11Z"/><path class="cls-25" d="m1004.09,263.45c3.46-.09,6.92-.26,10.38-.2.75.01,1.49.86,2.24,1.33-4.21-.35-8.63,1.66-12.62-1.13Z"/><path class="cls-20" d="m860.87,428.23c-1.73-1.86-1.41-5.33-4.71-5.95l.05-.05c.09,2.07-.5,3.43-2.96,2.85-3.13-2.45-1.29-7.5-5.06-9.62-3.77-8-2.22-12.3,5.36-15.03,6.59,2.13,11.48-.11,14.99-5.87h7.81c4.04,2.58,6.31,7.1,9.3,10.71,2.53,3.05,4.75,7.56,4.55,12.37-.13,3.26-1.67,4.6-4.73,4.62-2.72.51-5.54.37-8.2,1.29-4.97.18-5.53,4.58-6.77,7.81-4.32.93-5.14-6.55-9.65-3.13Z"/><path class="cls-29" d="m868.55,394.57c.79,4.64-3.13,6.31-5.75,9.4-2.75-.64-5.54-1.29-8.32-1.94-.87-1.44-.27-3.13-.81-4.62-2.3-3.31-8-4.94-5.29-10.7-.11-3.3,2.36-4.64,4.64-6.41,6.09,3.79,3.99,10.19,4.97,15.43,2.74-.5,5.08-.93,7.41-1.36,1.05.07,2.1.14,3.15.21Z"/><path class="cls-29" d="m877.73,422.28c2.73-2.31,5.02-2.32,7.76-.01.48,1.62.96,3.25,1.35,4.57-1.51,1.65-2.92,3.18-4.33,4.72-2.12,1.54-4.33,2.96-6.31,4.66-.78.67-1.03,1.94-1.52,2.94-1.61,6.61-5.29,5.14-9.3,2.39-1.25-2.16.01-3.85,1.04-5.58,6.17-2.57,7.2-9.41,11.32-13.69Z"/><path class="cls-16" d="m868.52,391.32c-.04-.51-.03-1.02.02-1.52h86.1c0,.51,0,1.01,0,1.52h-86.12Z"/><path class="cls-30" d="m1061.36,392.75c.42.23,1.21.46,1.2.68-.07,5.17,2.44,9.73,3.42,14.64-4.31,5.8-6.29,12.43-7.64,19.48-1.24,6.48-3.84,12.67-4.87,19.24-.4.04-.79.09-1.19.16-.48.5-1.03.91-1.65,1.22-1.03-.01-2.07-.03-3.1-.04-.52-.33-1.03-.29-1.53.06h-48.87c-5.22-6.03-7.5-13.93-7.92-21.64-.64-11.73,1.31-23.36,8.79-33.9h55.73c2.06-.72,4.11-.8,6.15.06.48.2.98.22,1.47.06Z"/><path class="cls-21" d="m1059.89,392.69l-6.15-.06c2.67-1.83,3.6-1.82,6.15.06Z"/><path class="cls-21" d="m1058.36,386.83c.98-.03,1.97-.07,2.95-.1.13.51.13,1.02-.01,1.53-.98-.48-1.96-.95-2.94-1.43Z"/><path class="cls-6" d="m1046.01,448.18c.46-1.37.96-1.58,1.53-.06-.51.02-1.02.04-1.53.06Z"/><path class="cls-6" d="m1050.64,448.16l1.65-1.22c-.07.42-.15.84-.26,1.25l-.7.18-.69-.21Z"/><path class="cls-21" d="m1053.73,386.86c.51,0,1.03-.02,1.54-.02-.25.41-.51.82-.76,1.23-.26-.4-.52-.81-.78-1.21Z"/><path class="cls-21" d="m1004.33,386.84c.51,0,1.03,0,1.54,0-.34.35-.68.7-1.02,1.05-.18-.35-.35-.7-.53-1.04Z"/><path class="cls-1" d="m865.24,440.55c5.22,2.65,6.1,2.52,9.42-1.4,2.91,2.97,5.82,5.94,8.68,8.85,1.51-8.67,2.18-9.55,8.29-9.91-1.04,4.58-2.03,8.99-3.03,13.41-4.57,4.6-10.63,3.86-15.73,2.73-3.54-.78-6.93-.9-10.4-1.12-2.81-.18-5.69-.37-8.44.07-2.39.38-4.57-2.23-6.9-.22-.66-.98-1.33-1.96-1.99-2.93-.51-1.29-.7-2.89-1.59-3.8-1.6-1.66-.11-2.41.55-3.48l-.13-.28c6.91-2.66,14.14-1.74,21.27-1.92Z"/><path class="cls-3" d="m1260.71,419.18c-.09-.75.04-1.65-.32-2.24-4.7-7.75-4.05-11.67,3.34-18.09,3.95,1.54,8.03,3.13,12.11,4.73.03,2.61.07,5.22.1,7.83-1.93,2.73-3.76,5.54-5.83,8.16-2.69,3.39-3.24,3.28-7.23-.1-.47-.4-1.44-.2-2.17-.28Z"/><path class="cls-30" d="m1073.72,446.88c-.63.37-1.44,1.21-1.87,1.05-4.06-1.52-7.92,1.07-11.9.47-.8-1.76-2.43-3.25-1.24-5.55,4.93-9.53,9.77-19.1,14.68-28.64.21-.4.79-.61,1.86-1.38,0,10.79.04,21.12-.07,31.44,0,.88-.96,1.74-1.47,2.61Z"/><path class="cls-25" d="m831.26,321.73c-2.29,1.12-2.28,2.24,0,3.37,1.49.9,3.47.61,4.79,1.93,6.98,10.77,5.59,22.7,4.74,34.53-.15,2.05-1.23,3.84-3.12,4.95-1.03-.06-2.06-.12-3.09-.18-1.06-.58-2.12-.58-3.18,0-29.27-.02-58.54-.05-87.81-.07-1.11-.54-.77-2.02-1.71-2.66-3.15-3.72-4.47-8.1-4.55-12.87-.08-4.86-.28-9.75.05-14.59.36-5.17,1.3-10.3,3.33-15.15.66-1.58,1.28-3.18,2.12-5.29,2.04,0,4.29,0,6.55,0,30.98.06,61.95.13,92.93.19-.51,1.41-1.01,2.82-1.52,4.23-.26.27-.51.54-.77.81-2.89.57-5.93-.6-8.75.79Z"/><path class="cls-25" d="m808.57,310.9c1.92-1,3.83-2.01,5.75-3.01.51,2.11,2.19,1.63,3.63,1.63,7.81.01,15.63-.05,23.44.05,1.33.02,2.65.72,3.97,1.11-12.27.08-24.53.15-36.8.23Z"/><path class="cls-29" d="m871.63,320.43c-1.3.47-2.59,1.32-3.9,1.34-9,.12-17.99.06-26.99.05-.53-.3-.71-.61-.56-.94.16-.34.32-.51.49-.51,0,0,.1-.25.1-.25,10.29.1,20.57.2,30.86.3Z"/><path class="cls-27" d="m816,269.38c-.02,1.58-.05,3.17-.07,4.75-.51-1.01-1.02-2.03-1.53-3.04.54-.57,1.07-1.14,1.61-1.71Z"/><path class="cls-5" d="m1282.45,385.32c.12-1.15.23-2.31.35-3.46,1.67,1.34,1.28,2.46-.35,3.46Z"/><path class="cls-30" d="m1002.76,161.55c-.52.89-1.05,1.77-1.57,2.66-1,0-2,.01-3,.02-1.38-1.15-3.38-.04-4.72-1.31-6.59-13.94-6.62-27.85.14-41.74,1,2.14,2.83,4.27,2.83,6.41,0,6.12,1.34,11.87,3.26,17.56.6,1.76-1.32,4.13,1.3,5.4.08,2.69.04,5.38.32,8.05.11,1.02.94,1.97,1.44,2.95Z"/><path class="cls-19" d="m993.47,162.92c1.6.34,3.72-1.2,4.72,1.31-1.65-.17-3.77,1.39-4.72-1.31Z"/><path class="cls-27" d="m816.08,275.57c.5.71,1.4,1.41,1.42,2.14.14,4.22.14,8.45,0,12.67-.02.73-.91,1.44-1.4,2.16,0-5.65-.01-11.31-.02-16.96Z"/><path class="cls-29" d="m806.77,306.46c-.96.48-1.91,1.35-2.88,1.38-3.18.1-6.37-.11-9.56-.2,1.33-.41,2.65-1.09,4-1.17,2.8-.17,5.63-.03,8.44-.02Z"/><path class="cls-27" d="m815.95,298.66c-.38,1.65,1.33,4.04-1.68,4.75-.78-1.36-.17-3.07,1.68-4.75Z"/><path class="cls-27" d="m816.1,297.17l1.08.58c-.42.31-.83.61-1.25.92,0-.5.06-1,.16-1.5Z"/><path class="cls-12" d="m712.43,371.56c-.95-.83-1.9-1.66-3.04-2.65,2.03-1.45,3.84-2.75,6.25-4.47-.38-9.95-2.15-19.71-7.61-28.59h7.19c1.31,1.45,3.12,2.76,3.94,4.54.75,1.62,1.16,4.96.43,5.4-2.5,1.51-3.14,3.77-2.16,5.63.89,1.7,3.33,2.58,5.86,4.37,1.41,4.44-1.32,9.14-2.77,14.04.34.56.23,1.02-.33,1.37l.04-.04c-.58.59-1.24,1.05-1.99,1.38-2.1.62-4.04.28-5.81-1Z"/><path class="cls-6" d="m831.44,372.8c-32.15,0-64.31.03-96.46-.07-1.77,0-4.18,1.44-5.39-1.3,2.59-.12,5.18-.23,7.76-.35,28.54.05,57.08.1,85.62.17,2.82,0,5.65.11,8.47.17.35.31.47.61.35.92-.12.31-.24.46-.35.46Z"/><path class="cls-12" d="m702.01,331.28c-4.77,6.49-3.88,13.54-2.05,20.68-4.51.43-5.66-.06-5.85-3.09-.25-3.82-.17-7.67-.23-11.5,1.11-2.58,2.23-5.15,3.34-7.73,1.71.21,3.9-.97,4.79,1.64Z"/><path class="cls-21" d="m732.62,310.97c.56-.45,1.12-.9,1.69-1.36-.56.45-1.12.9-1.69,1.36Z"/><path class="cls-21" d="m706.4,310.97c.18-.36.36-.73.53-1.09.34.37.68.74,1.03,1.11-.52,0-1.04-.01-1.56-.02Z"/><path class="cls-21" d="m701.75,310.99c.18-.37.36-.74.55-1.1.34.37.69.75,1.03,1.12-.53,0-1.05-.01-1.58-.02Z"/><path class="cls-6" d="m720.2,371.21c.01-.48.12-.93.33-1.37.45.46.9.93,1.35,1.39-.56,0-1.12-.02-1.68-.02Z"/><path class="cls-6" d="m724.92,371.41c-.25.41-.5.81-.76,1.22-.25-.4-.51-.8-.76-1.2.5-.19,1.01-.2,1.52-.02Z"/><path class="cls-13" d="m831.44,372.8c0-.46,0-.92,0-1.38,1.87-.16,3.75-.33,6.01-.53.08-1.61.14-3,.21-4.39,2.84-9.09,1.49-18.45,1.25-27.65-.1-4.13-2.83-8.19-4.36-12.29,11.29-1.55,22.6-.99,33.91-.28,27.01.05,54.01.17,81.02.1,4.96-.01,9.72,1.38,12.15,5.15,2.43,3.76,3.37,8.78,3.92,13.37.65,5.32.13,10.79.19,16.19.07,6.4-1.54,12.34-4.74,17.86-1.68,1.68-4.02,2.03-6.07,2.96-28.81-.03-57.63-.06-86.44-.09-.92-.69-2.24-.44-3.1-1.29h0c-.49-.51-.95-1.03-1.38-1.58-.94-.69-1.86-1.4-2.83-2.05-5.56-3.71-9.14-3.53-13.88.91-1.47,1.37-2.6,3.11-3.43,4.12h-10.89c.02-.5-.15-1.16.1-1.49,2.52-3.23,1.58-5.67-1.64-7.64Z"/><path class="cls-3" d="m831.39,366.34c1.06-1.78,2.12-1.82,3.18,0-1.06,0-2.12,0-3.18,0Z"/><path class="cls-3" d="m741.86,363.61c.57.89,1.14,1.77,1.71,2.66-2.24.19-1.46-1.57-1.71-2.66Z"/><path class="cls-21" d="m856.11,397.51c-.54,1.51-1.09,3.02-1.63,4.52q-5.55.94-6.03,5.43c-.13,1.2-.33,2.41-.58,3.59-.09.41-.44.75-.83,1.39.95.74,1.91,1.48,2.86,2.22,1.79,2.99,2.4,5.99.06,9-3.55-.48-4.17,2.8-5.84,4.65-3.52-1.64-8.04-1.52-9.6-6.07.85-2.18,3.46-2.84,4.42-5.23.04-3.55-5.11-4.72-4.48-8.73,2.17-5.4,4.26-10.84,6.59-16.17.43-.98,1.84-1.53,2.79-2.28.49,0,.98,0,1.46.02,2.06,4.72,5.67,7.26,10.8,7.66Z"/><path class="cls-26" d="m834.46,408.28c2.79,2.81,5.58,5.62,9.17,9.24-3.68,1.91-6.4,3.31-9.11,4.72-5.17-2.04-10.33-4.07-15.5-6.11-1.71.8-2.17-.8-3.05-1.59l-.03-.03c-4.68-3.68-1.29-5.65,1.63-7.72,3.06-.86,6.12-1.72,9.18-2.58,3.58-.89,3.97,4.44,7.7,4.07Z"/><path class="cls-23" d="m712.43,371.56c2.13-.04,4.27-.08,6.4-.11.93.76.5,2.18,1.44,2.94.52,2.41.95,4.84,1.59,7.23,2.92,11.01,1.33,22.23,1.28,33.34-.01,2.86-.08,7.25-4.28,8.78-3.62.49-3.43-2.79-4.64-4.68,2.75-13.05,4.15-26.01-1.35-38.83-.93-2.16-1.82-4.82-.45-7.36.09-.43.1-.87.02-1.31Z"/><path class="cls-25" d="m817.58,406.79c.9,2.8-2.32,2.74-3.11,4.48.48,1.05.98,2.15,1.48,3.24-2.09-1.09-4.18-2.18-5.66-2.96-.79-5.28-1.42-9.49-2.05-13.7.46-.21.92-.41,1.38-.62,1.1,1.1,2.32,2.11,3.27,3.33,1.58,2.06,1.5,5.37,4.7,6.22Z"/><path class="cls-25" d="m823.7,423.77c2.31.62,4.68,1.09,6.9,1.96.54.21.59,1.7.86,2.6-2.32-.62-4.7-1.09-6.93-1.95-.54-.21-.57-1.71-.84-2.61Z"/><path class="cls-25" d="m815.98,414.54c1.02.53,2.03,1.06,3.05,1.59.02,1.51.04,3.01.07,4.52-2.19.18-3.42-.57-3.12-3.03.13-1.01,0-2.06,0-3.08Z"/><path class="cls-6" d="m720.27,374.39l-1.44-2.94c.46-.14.93-.23,1.41-.27l.03,3.21Z"/><path class="cls-30" d="m712.41,372.86c-.22,3.22,1.74,5.65,2.92,8.41,3.99,9.29,4.39,18.94,2.53,28.8-.55,2.92-.74,5.91-1.11,8.98h-2.55c-3.86-5.98-6.58-12.1-6.43-19.63.14-6.75-2-13.49-1.42-20.36.41-.33.83-.66,1.24-1,.56.89,1.11,1.77,1.64,2.62,3.79-2.01-.42-6.25,3.16-7.82Z"/><path class="cls-6" d="m704.85,426.83l-10.59-.11c.66-3.07,1.32-6.13,2.07-9.62,4.82,2.01,5.93,6.54,8.53,9.73Z"/><path class="cls-22" d="m877.73,422.28c-.52,1.12-1.6,2.31-1.48,3.36.81,7.1-3.71,9.24-9.33,10.48-.51.5-1,.48-1.47-.06-.28-.92-.31-2.38-.9-2.66-2.29-1.08-2.78-3.23-3.68-5.17,3.26-.9.12-4.23,2.31-5.74h3.12c1.86,2.79-1.32,7.11,3.68,8.71v-8.92h7.75Z"/><path class="cls-2" d="m865.44,436.06c.49.03.98.05,1.47.06-.56,1.48-1.11,2.95-1.67,4.43-2.11.58-4.35.89-6.3,1.82-2.35,1.12-4.15,1.56-6.87.3-2.25-1.04-5.37-.21-8.1-.2v-2.48c.57-.24,1.21-.74,1.85-.74,5.73.03,11.51.58,16.61-3.06.68-.49,1.98-.11,3-.14Z"/><path class="cls-22" d="m849.97,423.66c-.02-3-.04-6-.06-9,2.12.66,3.38,1.91,3.28,4.32-.08,2.03.04,4.07.07,6.11-.54.06-1.08.13-1.62.19-.56-.54-1.11-1.08-1.67-1.62Z"/><path class="cls-27" d="m670.79,343.49c.69-.53,1.35-1.43,2.09-1.51,1.95-.21,3.93-.06,5.91-.05-.7,3.03-1.4,6.06-2.2,9.5-4.26-1.39-5.01-4.68-5.8-7.94Z"/><path class="cls-25" d="m1033.68,263.29c-.93,2.46-2.97,1.36-4.65,1.45,2.37-3.6,2.55-3.66,4.65-1.45Z"/><path class="cls-3" d="m1103.14,269.32c-8.13,5.66-15.46,12.15-21.11,20.37-1.27,1.85-2.3,3.88-3.68,5.63-.77.97-2.05,1.53-3.14,2.31-2.55-3.17-1.56-5.82.14-8.01,4.77-6.16,7.37-13.43,10.81-20.28.72-.46,1.67-1.48,2.13-1.29,1.83.73,3.51,1.84,5.67,3.05,2.67-1.5,5.24-5.96,9.19-1.78Z"/><path class="cls-30" d="m1349.79,384.29c-.08.15-.16.3-.24.45-.22-.16-.45-.33-.67-.49.16-.15.32-.3.48-.44.15.16.29.32.44.48Z"/><path class="cls-16" d="m1062.97,368.15c-2.85-.12-6.16.98-7.68-2.98.52-.99,1.09-2.05,1.65-3.12,2.1-4.32,6.18-5.96,10.26-7.62,5.05-1.12,7.59-6.5,12.7-7.51.58.04,1.15.09,1.73.13,4.09,8.32-3.45,9.8-7.75,13.18-2.44.37-5.43-.27-6.16,3.3-1.58,1.54-3.16,3.08-4.74,4.62Z"/><path class="cls-23" d="m1072.25,363.61c.52,0,1.03.01,1.55.02-.18.36-.35.72-.53,1.09-.34-.37-.68-.74-1.02-1.11Z"/><path class="cls-12" d="m1073.87,360.22c.6-1.28,1.01-3.52,1.84-3.69,5.53-1.11,5.96-5.09,5.91-9.49.99-.68,1.98-1.35,2.96-2.03,2.66,4.36,1.16,9.19,1.54,13.81-2,.88-3.99,1.77-6.22,2.76-1.7-.38-3.87-.87-6.04-1.36Z"/><path class="cls-1" d="m1064.49,315.63c-34.45,0-68.9.01-103.35.02.98-.5,1.96-1.44,2.94-1.44,32.49-.08,64.98-.08,97.46,0,.98,0,1.97.93,2.95,1.42Z"/><path class="cls-12" d="m1079.9,346.92c.61,3.44-2.52,2.09-3.8,3.1-1.27,1-2.05,2.66-2.98,4.08-1.35,2.08-3.41,1.73-5.4,1.7-3.35-4.05-1.43-7.96.33-11.87,1.07-1.54,2.59-2.11,4.41-1.97.5.56,1,1.13,1.5,1.69.92,3.01,3.66,2.73,5.94,3.27Z"/><path class="cls-20" d="m1072.46,341.96c-1.06.61-2.13,1.21-3.19,1.82-4.04-1.17-8.77-1.8-6.32-8.06,1.99-1.97,3.98-3.94,5.97-5.91-.8,4.63,2.85,7.96,3.54,12.15Z"/><path class="cls-29" d="m1062.95,335.72v3.82c2.18,1.41,5.82.58,6.32,4.23-.52,4.01-1.03,8.02-1.55,12.02-3.59,2.08-7.18,4.17-10.78,6.25-3.42-1.49.35-3.05.08-4.79-.67-4.46-.63-9.13-.08-13.63.42-3.46.86-7.68,6-7.91Z"/><path class="cls-14" d="m856.11,397.51c-2.08.57-4.15,1.14-6.01,1.65-4.23-1.99-5.37-5.23-4.79-9.31-.25-2.29.62-3.48,3.07-3.14.72,4.1,1.89,7.76,7.02,8.17.31.02.48,1.72.72,2.64Z"/><path class="cls-27" d="m868.46,326.29c-11.3.09-22.61.19-33.91.28-1.1-.49-2.2-.98-3.3-1.47,11.39-.05,22.77-.13,34.15-.08,1.02,0,2.04.83,3.06,1.27Z"/><path class="cls-27" d="m840.68,320.38c.02.48.04.96.07,1.44-3.16-.03-6.33-.06-9.49-.1,2.77-3.04,6.32-.61,9.42-1.35Z"/><path class="cls-25" d="m954.92,381.92c2.02-.99,4.05-1.97,6.07-2.96-.86,3.38-3.37,3.36-6.07,2.96Z"/><path class="cls-25" d="m865.39,380.54c1.03.43,2.06.86,3.1,1.29-1.28.18-2.74.77-3.1-1.29Z"/><path class="cls-25" d="m864,378.96c.46.53.92,1.05,1.38,1.58-.46-.53-.92-1.05-1.38-1.58Z"/><path class="cls-25" d="m870.22,413.42c4.44-.45,8.89-.9,13.5-1.37-3.36,4.61-7.36,5.31-13.5,1.37Z"/><path class="cls-29" d="m856.22,422.24l-1.74-2.16c.35-.19.71-.38,1.06-.57.21.92.42,1.85.62,2.77l.05-.05Z"/></svg>